<svg width="1028" height="914" viewBox="0 0 1028 914" fill="none" xmlns="http://www.w3.org/2000/svg">
<path d="M591 352.5C421 231.7 339.833 69.5 320.5 3.5L132.5 -79.5C17.8333 -64.8333 -216.4 -27.7 -236 3.5C-260.5 42.5 -202 132.5 -131 140C-60 147.5 115.5 352.5 174 416C232.5 479.5 240 794 391 838C542 882 720.5 818.5 757 723.5C793.5 628.5 803.5 503.5 591 352.5Z" fill="url(#paint0_linear)"/>
<path d="M730.85 369.797C459.958 197.882 330.621 -32.9519 299.814 -126.879L0.239868 -245C-182.479 -224.127 -555.725 -171.281 -586.957 -126.879C-625.997 -71.3767 -532.779 56.706 -419.642 67.3796C-306.505 78.0531 -26.8492 369.797 66.3692 460.167C159.588 550.536 171.539 998.114 412.154 1060.73C652.769 1123.35 937.205 1032.98 995.367 897.783C1053.53 762.584 1069.46 584.692 730.85 369.797Z" fill="#55AED9" fill-opacity="0.25"/>
<defs>
<linearGradient id="paint0_linear" x1="-15.4999" y1="14" x2="678" y2="789" gradientUnits="userSpaceOnUse">
<stop stop-color="#7222FF"/>
<stop offset="1" stop-color="#25B2F9"/>
</linearGradient>
</defs>
</svg>
