<svg width="95" height="95" viewBox="0 0 95 95" fill="none" xmlns="http://www.w3.org/2000/svg">
<g clip-path="url(#clip0)">
<path d="M2.98247 56.1328C6.4572 68.0085 16.473 92.2335 33.3977 90.0591C50.3726 87.878 43.7436 65.989 59.2829 62.9889C66.1235 61.6682 70.7603 73.5074 77.6161 73.1391C86.4459 72.6646 90.9402 63.9242 93.4076 56.5764C98.6395 40.9964 90.8046 14.5775 72.467 10.0019C56.4647 6.00912 54.5929 25.5609 40.6787 19.8819C32.8581 16.6899 33.6394 7.15785 24.1146 5.23447C-4.70047 -0.584097 -1.64118 40.3308 2.98247 56.1328V56.1328Z" fill="url(#paint0_linear)"/>
<path opacity="0.1" d="M84.511 19.9485H10.4889C8.95187 19.9485 7.70574 21.1947 7.70574 22.7318V81.0428C7.70574 82.5799 8.95187 83.826 10.4889 83.826H32.1385V88.2695C32.1385 89.2943 32.9692 90.125 33.994 90.125H61.0059C62.0307 90.125 62.8614 89.2943 62.8614 88.2695V83.826H84.511C86.0481 83.826 87.2942 82.5799 87.2942 81.0428V22.7318C87.2942 21.1947 86.0483 19.9485 84.511 19.9485V19.9485Z" fill="#2626BC"/>
<path d="M84.511 79.3729H10.4889C8.95187 79.3729 7.70574 78.1268 7.70574 76.5897V18.2786C7.70574 16.7416 8.95187 15.4954 10.4889 15.4954H84.511C86.0481 15.4954 87.2942 16.7416 87.2942 18.2786V76.5897C87.2942 78.127 86.0483 79.3729 84.511 79.3729Z" fill="white"/>
<path d="M79.5606 79.3729H15.4393V41.1282C15.4393 40.1034 16.27 39.2727 17.2948 39.2727H77.7052C78.7299 39.2727 79.5606 40.1034 79.5606 41.1282V79.3729Z" fill="#FF6A79"/>
<path d="M15.4393 68.5076H79.5604V79.3729H15.4393V68.5076Z" fill="#9FB0FE"/>
<path d="M65.8571 62.6185C69.3054 62.6185 72.1009 59.8231 72.1009 56.3747C72.1009 52.9263 69.3054 50.1309 65.8571 50.1309C62.4087 50.1309 59.6132 52.9263 59.6132 56.3747C59.6132 59.8231 62.4087 62.6185 65.8571 62.6185Z" fill="#FFDA8F"/>
<path d="M68.9403 56.5857C68.9403 54.8861 67.5561 53.5038 65.8565 53.5038C64.1569 53.5038 62.7746 54.8861 62.7746 56.5857C62.7746 57.4244 63.1123 58.1851 63.6559 58.7418C63.1123 59.2966 62.7746 60.0573 62.7746 60.896V61.8052C63.3442 62.128 63.9676 62.3655 64.63 62.4972V60.896C64.63 60.2187 65.1811 59.6695 65.8565 59.6695C66.5337 59.6695 67.0848 60.2187 67.0848 60.896V62.4972C67.7472 62.3655 68.3707 62.128 68.9403 61.8052V60.896C68.9403 60.0573 68.6026 59.2966 68.0571 58.7418C68.6026 58.1851 68.9403 57.4244 68.9403 56.5857ZM65.8565 57.814C65.1811 57.814 64.63 57.263 64.63 56.5857C64.63 55.9103 65.1811 55.3593 65.8565 55.3593C66.5337 55.3593 67.0848 55.9103 67.0848 56.5857C67.0848 57.263 66.5337 57.814 65.8565 57.814Z" fill="#FFAF5D"/>
<path d="M29.1429 62.6185C32.5913 62.6185 35.3868 59.8231 35.3868 56.3747C35.3868 52.9263 32.5913 50.1309 29.1429 50.1309C25.6945 50.1309 22.8991 52.9263 22.8991 56.3747C22.8991 59.8231 25.6945 62.6185 29.1429 62.6185Z" fill="#FFDA8F"/>
<path d="M32.2261 56.5857C32.2261 54.8861 30.8419 53.5038 29.1423 53.5038C27.4427 53.5038 26.0604 54.8861 26.0604 56.5857C26.0604 57.4244 26.3981 58.1851 26.9418 58.7418C26.3981 59.2966 26.0604 60.0573 26.0604 60.896V61.8052C26.63 62.128 27.2535 62.3655 27.9159 62.4972V60.896C27.9159 60.2187 28.4669 59.6695 29.1423 59.6695C29.8196 59.6695 30.3707 60.2187 30.3707 60.896V62.4972C31.0331 62.3655 31.6565 62.128 32.2261 61.8052V60.896C32.2261 60.0573 31.8884 59.2966 31.3429 58.7418C31.8884 58.1851 32.2261 57.4244 32.2261 56.5857V56.5857ZM29.1423 57.814C28.4669 57.814 27.9159 57.263 27.9159 56.5857C27.9159 55.9103 28.4669 55.3593 29.1423 55.3593C29.8196 55.3593 30.3707 55.9103 30.3707 56.5857C30.3707 57.263 29.8196 57.814 29.1423 57.814Z" fill="#FFAF5D"/>
<path d="M79.5606 45.6765H15.4393V41.1282C15.4393 40.1034 16.27 39.2727 17.2948 39.2727H77.7052C78.7299 39.2727 79.5606 40.1034 79.5606 41.1282V45.6765Z" fill="#FFAF5D"/>
<path d="M87.2942 28.3562V18.2786C87.2942 16.7416 86.0481 15.4954 84.511 15.4954H10.4889C8.95187 15.4954 7.70574 16.7416 7.70574 18.2786V28.3562H87.2942Z" fill="#6583FE"/>
<path d="M15.887 24.3649C17.0041 24.3649 17.9097 23.4594 17.9097 22.3423C17.9097 21.2252 17.0041 20.3196 15.887 20.3196C14.77 20.3196 13.8644 21.2252 13.8644 22.3423C13.8644 23.4594 14.77 24.3649 15.887 24.3649Z" fill="#FF5BA8"/>
<path d="M22.3443 24.3649C23.4613 24.3649 24.3669 23.4594 24.3669 22.3423C24.3669 21.2252 23.4613 20.3196 22.3443 20.3196C21.2272 20.3196 20.3216 21.2252 20.3216 22.3423C20.3216 23.4594 21.2272 24.3649 22.3443 24.3649Z" fill="white"/>
<path d="M28.8013 24.3649C29.9184 24.3649 30.8239 23.4594 30.8239 22.3423C30.8239 21.2252 29.9184 20.3196 28.8013 20.3196C27.6842 20.3196 26.7786 21.2252 26.7786 22.3423C26.7786 23.4594 27.6842 24.3649 28.8013 24.3649Z" fill="#02FFB3"/>
<path d="M80.2076 24.6146H54.9439V20.0695H80.2078C80.7201 20.0695 81.1355 20.4849 81.1355 20.9972V23.6869C81.1354 24.1994 80.7201 24.6146 80.2076 24.6146V24.6146Z" fill="#FFDBED"/>
<path d="M55.0682 20.1274C54.0874 19.1466 52.4915 19.1466 51.5107 20.1274C50.5299 21.1082 50.5299 22.7041 51.5107 23.6849C52.2598 24.4339 53.3668 24.6089 54.2852 24.2141L55.092 25.0208C55.4542 25.383 56.0418 25.383 56.404 25.0208C56.7662 24.6586 56.7662 24.071 56.404 23.7088L55.5972 22.9021C55.9922 21.9834 55.8173 20.8764 55.0682 20.1274V20.1274ZM52.8227 21.4394C53.0801 21.182 53.4989 21.182 53.7562 21.4394C54.0136 21.6967 54.0136 22.1155 53.7562 22.3729C53.4989 22.6302 53.0801 22.6302 52.8227 22.3729C52.5654 22.1155 52.5654 21.6967 52.8227 21.4394Z" fill="white"/>
<path d="M61.0059 84.672H33.994C33.5215 84.672 33.1386 84.2891 33.1386 83.8166V36.2943C33.1386 35.8218 33.5215 35.4388 33.994 35.4388H61.0059C61.4784 35.4388 61.8614 35.8218 61.8614 36.2943V83.8164C61.8614 84.2891 61.4784 84.672 61.0059 84.672Z" fill="#9FB0FE" stroke="black" stroke-width="2"/>
<path d="M33.1386 83.8166V71.6318H61.8614V83.8166C61.8614 84.289 61.4784 84.672 61.0059 84.672H33.994C33.5215 84.672 33.1386 84.289 33.1386 83.8166Z" fill="#8399FE" stroke="black" stroke-width="2"/>
<path d="M61.8614 39.286H33.1386V36.2943C33.1386 35.8218 33.5215 35.4388 33.994 35.4388H61.0059C61.4784 35.4388 61.8614 35.8218 61.8614 36.2943V39.286Z" fill="#6583FE" stroke="black" stroke-width="2"/>
<mask id="path-20-inside-1" fill="white">
<path d="M84.5112 14.5677H10.4889C8.44273 14.5677 6.778 16.2324 6.778 18.2786V76.5897C6.778 78.6359 8.44273 80.3006 10.4889 80.3006H31.2108V83.8166C31.2108 85.3512 32.4594 86.5998 33.994 86.5998H61.0059C62.5406 86.5998 63.7891 85.3512 63.7891 83.8166V80.3006H84.5112C86.5574 80.3006 88.2221 78.6359 88.2221 76.5897V18.2786C88.2221 16.2324 86.5574 14.5677 84.5112 14.5677ZM61.9337 83.8166C61.9337 84.3281 61.5175 84.7443 61.0059 84.7443H33.994C33.4825 84.7443 33.0663 84.3281 33.0663 83.8166V36.2943C33.0663 35.7827 33.4825 35.3666 33.994 35.3666H61.0059C61.5175 35.3666 61.9337 35.7827 61.9337 36.2943V83.8166ZM86.3667 76.5897C86.3667 77.6128 85.5343 78.4452 84.5112 78.4452H63.7891V36.2943C63.7891 34.7596 62.5406 33.5111 61.0059 33.5111H33.994C32.4594 33.5111 31.2108 34.7596 31.2108 36.2943V78.4452H10.4889C9.46583 78.4452 8.63347 77.6128 8.63347 76.5897V18.2786C8.63347 17.2555 9.46583 16.4232 10.4889 16.4232H84.5112C85.5343 16.4232 86.3667 17.2555 86.3667 18.2786V76.5897Z"/>
</mask>
<path d="M84.5112 14.5677H10.4889C8.44273 14.5677 6.778 16.2324 6.778 18.2786V76.5897C6.778 78.6359 8.44273 80.3006 10.4889 80.3006H31.2108V83.8166C31.2108 85.3512 32.4594 86.5998 33.994 86.5998H61.0059C62.5406 86.5998 63.7891 85.3512 63.7891 83.8166V80.3006H84.5112C86.5574 80.3006 88.2221 78.6359 88.2221 76.5897V18.2786C88.2221 16.2324 86.5574 14.5677 84.5112 14.5677ZM61.9337 83.8166C61.9337 84.3281 61.5175 84.7443 61.0059 84.7443H33.994C33.4825 84.7443 33.0663 84.3281 33.0663 83.8166V36.2943C33.0663 35.7827 33.4825 35.3666 33.994 35.3666H61.0059C61.5175 35.3666 61.9337 35.7827 61.9337 36.2943V83.8166ZM86.3667 76.5897C86.3667 77.6128 85.5343 78.4452 84.5112 78.4452H63.7891V36.2943C63.7891 34.7596 62.5406 33.5111 61.0059 33.5111H33.994C32.4594 33.5111 31.2108 34.7596 31.2108 36.2943V78.4452H10.4889C9.46583 78.4452 8.63347 77.6128 8.63347 76.5897V18.2786C8.63347 17.2555 9.46583 16.4232 10.4889 16.4232H84.5112C85.5343 16.4232 86.3667 17.2555 86.3667 18.2786V76.5897Z" fill="black"/>
<path d="M31.2108 80.3006H50.2108V61.3006H31.2108V80.3006ZM63.7891 80.3006V61.3006H44.7891V80.3006H63.7891ZM63.7891 78.4452H44.7891V97.4452H63.7891V78.4452ZM31.2108 78.4452V97.4452H50.2108V78.4452H31.2108ZM84.5112 -4.43231H10.4889V33.5677H84.5112V-4.43231ZM10.4889 -4.43231C-2.05068 -4.43231 -12.222 5.739 -12.222 18.2786H25.778C25.778 26.7258 18.9361 33.5677 10.4889 33.5677V-4.43231ZM-12.222 18.2786V76.5897H25.778V18.2786H-12.222ZM-12.222 76.5897C-12.222 89.1293 -2.05066 99.3006 10.4889 99.3006V61.3006C18.9361 61.3006 25.778 68.1425 25.778 76.5897H-12.222ZM10.4889 99.3006H31.2108V61.3006H10.4889V99.3006ZM12.2108 80.3006V83.8166H50.2108V80.3006H12.2108ZM12.2108 83.8166C12.2108 95.8446 21.966 105.6 33.994 105.6V67.5998C42.9528 67.5998 50.2108 74.8578 50.2108 83.8166H12.2108ZM33.994 105.6H61.0059V67.5998H33.994V105.6ZM61.0059 105.6C73.034 105.6 82.7891 95.8446 82.7891 83.8166H44.7891C44.7891 74.8578 52.0472 67.5998 61.0059 67.5998V105.6ZM82.7891 83.8166V80.3006H44.7891V83.8166H82.7891ZM63.7891 99.3006H84.5112V61.3006H63.7891V99.3006ZM84.5112 99.3006C97.0508 99.3006 107.222 89.1293 107.222 76.5897H69.2221C69.2221 68.1425 76.064 61.3006 84.5112 61.3006V99.3006ZM107.222 76.5897V18.2786H69.2221V76.5897H107.222ZM107.222 18.2786C107.222 5.739 97.0508 -4.43231 84.5112 -4.43231V33.5677C76.064 33.5677 69.2221 26.7258 69.2221 18.2786H107.222ZM42.9337 83.8166C42.9337 73.8347 51.0241 65.7443 61.0059 65.7443V103.744C72.0109 103.744 80.9337 94.8215 80.9337 83.8166H42.9337ZM61.0059 65.7443H33.994V103.744H61.0059V65.7443ZM33.994 65.7443C43.9759 65.7443 52.0663 73.8347 52.0663 83.8166H14.0663C14.0663 94.8215 22.9891 103.744 33.994 103.744V65.7443ZM52.0663 83.8166V36.2943H14.0663V83.8166H52.0663ZM52.0663 36.2943C52.0663 46.2762 43.9759 54.3666 33.994 54.3666V16.3666C22.9891 16.3666 14.0663 25.2893 14.0663 36.2943H52.0663ZM33.994 54.3666H61.0059V16.3666H33.994V54.3666ZM61.0059 54.3666C51.0241 54.3666 42.9337 46.2762 42.9337 36.2943H80.9337C80.9337 25.2893 72.0109 16.3666 61.0059 16.3666V54.3666ZM42.9337 36.2943V83.8166H80.9337V36.2943H42.9337ZM67.3667 76.5897C67.3667 67.1193 75.0409 59.4452 84.5112 59.4452V97.4452C96.0277 97.4452 105.367 88.1063 105.367 76.5897H67.3667ZM84.5112 59.4452H63.7891V97.4452H84.5112V59.4452ZM82.7891 78.4452V36.2943H44.7891V78.4452H82.7891ZM82.7891 36.2943C82.7891 24.2662 73.034 14.5111 61.0059 14.5111V52.5111C52.0472 52.5111 44.7891 45.253 44.7891 36.2943H82.7891ZM61.0059 14.5111H33.994V52.5111H61.0059V14.5111ZM33.994 14.5111C21.966 14.5111 12.2108 24.2662 12.2108 36.2943H50.2108C50.2108 45.253 42.9528 52.5111 33.994 52.5111V14.5111ZM12.2108 36.2943V78.4452H50.2108V36.2943H12.2108ZM31.2108 59.4452H10.4889V97.4452H31.2108V59.4452ZM10.4889 59.4452C19.9592 59.4452 27.6335 67.1193 27.6335 76.5897H-10.3665C-10.3665 88.1063 -1.02752 97.4452 10.4889 97.4452V59.4452ZM27.6335 76.5897V18.2786H-10.3665V76.5897H27.6335ZM27.6335 18.2786C27.6335 27.7489 19.9592 35.4232 10.4889 35.4232V-2.57684C-1.02757 -2.57684 -10.3665 6.76211 -10.3665 18.2786H27.6335ZM10.4889 35.4232H84.5112V-2.57684H10.4889V35.4232ZM84.5112 35.4232C75.0409 35.4232 67.3667 27.7489 67.3667 18.2786H105.367C105.367 6.76211 96.0277 -2.57684 84.5112 -2.57684V35.4232ZM67.3667 18.2786V76.5897H105.367V18.2786H67.3667Z" fill="black" mask="url(#path-20-inside-1)"/>
<path d="M47.5 58.8087C50.9484 58.8087 53.7438 56.0133 53.7438 52.5649C53.7438 49.1165 50.9484 46.321 47.5 46.321C44.0516 46.321 41.2562 49.1165 41.2562 52.5649C41.2562 56.0133 44.0516 58.8087 47.5 58.8087Z" fill="#02FFB3"/>
<path d="M50.5833 52.7759C50.5833 51.0763 49.1991 49.694 47.4995 49.694C45.7999 49.694 44.4175 51.0763 44.4175 52.7759C44.4175 53.6146 44.7552 54.3753 45.2989 54.932C44.7552 55.4867 44.4175 56.2475 44.4175 57.0862V57.9953C44.9872 58.3182 45.6106 58.5557 46.273 58.6874V57.0862C46.273 56.4089 46.8241 55.8597 47.4995 55.8597C48.1767 55.8597 48.7278 56.4089 48.7278 57.0862V58.6874C49.3902 58.5557 50.0136 58.3182 50.5833 57.9953V57.0862C50.5833 56.2475 50.2456 55.4867 49.7001 54.932C50.2456 54.3753 50.5833 53.6146 50.5833 52.7759ZM47.4995 54.0042C46.8241 54.0042 46.273 53.4531 46.273 52.7759C46.273 52.1005 46.8241 51.5494 47.4995 51.5494C48.1767 51.5494 48.7278 52.1005 48.7278 52.7759C48.7278 53.4531 48.1767 54.0042 47.4995 54.0042Z" fill="white"/>
<path d="M53.0367 64.002H41.9633C41.451 64.002 41.0355 63.5866 41.0355 63.0743C41.0355 62.562 41.451 62.1465 41.9633 62.1465H53.0369C53.5492 62.1465 53.9646 62.562 53.9646 63.0743C53.9646 63.5866 53.5492 64.002 53.0367 64.002Z" fill="#4369FD"/>
<path d="M53.0367 75.8293H41.9633C41.451 75.8293 41.0355 75.4139 41.0355 74.9016C41.0355 74.3893 41.451 73.9739 41.9633 73.9739H53.0369C53.5492 73.9739 53.9646 74.3893 53.9646 74.9016C53.9646 75.4139 53.5492 75.8293 53.0367 75.8293Z" fill="white"/>
<path d="M53.0367 79.3728H41.9633C41.451 79.3728 41.0355 78.9574 41.0355 78.4451C41.0355 77.9328 41.451 77.5173 41.9633 77.5173H53.0369C53.5492 77.5173 53.9646 77.9328 53.9646 78.4451C53.9646 78.9574 53.5492 79.3728 53.0367 79.3728Z" fill="white"/>
<path d="M45.8004 67.2415H41.9633C41.451 67.2415 41.0355 66.826 41.0355 66.3137C41.0355 65.8014 41.451 65.386 41.9633 65.386H45.8006C46.3128 65.386 46.7283 65.8014 46.7283 66.3137C46.7283 66.826 46.3128 67.2415 45.8004 67.2415Z" fill="#4369FD"/>
<path d="M58.4088 44.1583H56.2414C55.7291 44.1583 55.3137 43.7429 55.3137 43.2306C55.3137 42.7183 55.7291 42.3029 56.2414 42.3029H58.4088C58.9211 42.3029 59.3365 42.7183 59.3365 43.2306C59.3365 43.7429 58.9213 44.1583 58.4088 44.1583Z" fill="white"/>
<path d="M58.4088 47.0319H56.2414C55.7291 47.0319 55.3137 46.6164 55.3137 46.1041C55.3137 45.5918 55.7291 45.1764 56.2414 45.1764H58.4088C58.9211 45.1764 59.3365 45.5918 59.3365 46.1041C59.3365 46.6164 58.9213 47.0319 58.4088 47.0319Z" fill="white"/>
<path d="M36.7397 44.1588C37.2523 44.1588 37.6678 43.7433 37.6678 43.2307C37.6678 42.7181 37.2523 42.3026 36.7397 42.3026C36.2271 42.3026 35.8116 42.7181 35.8116 43.2307C35.8116 43.7433 36.2271 44.1588 36.7397 44.1588Z" fill="white"/>
<path d="M25.8478 90.7449C25.3355 90.7449 24.92 90.3297 24.92 89.8172C24.92 89.2032 24.4207 88.7039 23.8068 88.7039C23.2945 88.7039 22.879 88.2887 22.879 87.7762C22.879 87.2637 23.2945 86.8484 23.8068 86.8484C24.4207 86.8484 24.92 86.3491 24.92 85.7352C24.92 85.2227 25.3355 84.8074 25.8478 84.8074C26.3601 84.8074 26.7755 85.2227 26.7755 85.7352C26.7755 86.3491 27.2748 86.8484 27.8888 86.8484C28.4011 86.8484 28.8165 87.2637 28.8165 87.7762C28.8165 88.2887 28.4011 88.7039 27.8888 88.7039C27.2748 88.7039 26.7755 89.2032 26.7755 89.8172C26.7755 90.3297 26.3601 90.7449 25.8478 90.7449Z" fill="#01ECA5"/>
<path d="M16.7964 89.075C16.2841 89.075 15.8687 88.6598 15.8687 88.1473C15.8687 87.5333 15.3694 87.034 14.7554 87.034C14.2431 87.034 13.8277 86.6187 13.8277 86.1063C13.8277 85.5938 14.2431 85.1785 14.7554 85.1785C15.3694 85.1785 15.8687 84.6792 15.8687 84.0652C15.8687 83.5528 16.2841 83.1375 16.7964 83.1375C17.3087 83.1375 17.7241 83.5528 17.7241 84.0652C17.7241 84.6792 18.2234 85.1785 18.8374 85.1785C19.3497 85.1785 19.7652 85.5938 19.7652 86.1063C19.7652 86.6187 19.3497 87.034 18.8374 87.034C18.2234 87.034 17.7241 87.5333 17.7241 88.1473C17.7241 88.6598 17.3087 89.075 16.7964 89.075Z" fill="#FF5BA8"/>
<path d="M61.2902 11.5456C60.7777 11.5456 60.3625 11.1303 60.3625 10.6179C60.3625 10.0039 59.863 9.50458 59.249 9.50458C58.7365 9.50458 58.3213 9.08932 58.3213 8.57684C58.3213 8.06436 58.7365 7.64911 59.249 7.64911C59.863 7.64911 60.3625 7.1498 60.3625 6.53583C60.3625 6.02335 60.7777 5.60809 61.2902 5.60809C61.8027 5.60809 62.2179 6.02335 62.2179 6.53583C62.2179 7.1498 62.7172 7.64911 63.331 7.64911C63.8435 7.64911 64.2588 8.06436 64.2588 8.57684C64.2588 9.08932 63.8435 9.50458 63.331 9.50458C62.7172 9.50458 62.2179 10.0039 62.2179 10.6179C62.2179 11.1303 61.8027 11.5456 61.2902 11.5456Z" fill="#FF5BA8"/>
<path d="M70.5508 9.55855C69.0885 9.55855 67.899 8.36901 67.899 6.9069C67.899 5.44461 69.0885 4.25507 70.5508 4.25507C72.0129 4.25507 73.2025 5.44461 73.2025 6.9069C73.2025 8.36901 72.0129 9.55855 70.5508 9.55855V9.55855ZM70.5508 6.11053C70.1118 6.11053 69.7544 6.4679 69.7544 6.9069C69.7544 7.3459 70.1118 7.70308 70.5508 7.70308C70.9898 7.70308 71.347 7.3459 71.347 6.9069C71.347 6.4679 70.99 6.11053 70.5508 6.11053V6.11053Z" fill="#6583FE"/>
<path d="M68.0396 90.428C66.5775 90.428 65.388 89.2385 65.388 87.7762C65.388 86.3141 66.5775 85.1245 68.0396 85.1245C69.5018 85.1245 70.6913 86.3141 70.6913 87.7762C70.6913 89.2385 69.5018 90.428 68.0396 90.428ZM68.0396 86.98C67.6006 86.98 67.2435 87.3372 67.2435 87.7762C67.2435 88.2152 67.6006 88.5725 68.0396 88.5725C68.4786 88.5725 68.8358 88.2152 68.8358 87.7762C68.8358 87.3372 68.4786 86.98 68.0396 86.98Z" fill="#6583FE"/>
</g>
<defs>
<linearGradient id="paint0_linear" x1="12.7233" y1="79.823" x2="73.2919" y2="7.64008" gradientUnits="userSpaceOnUse">
<stop stop-color="#D2DEFF" stop-opacity="0"/>
<stop offset="0.6852" stop-color="#D2DEFF"/>
</linearGradient>
<clipPath id="clip0">
<rect width="95" height="95" fill="white"/>
</clipPath>
</defs>
</svg>
