<svg width="95" height="87" viewBox="0 0 95 87" fill="none" xmlns="http://www.w3.org/2000/svg">
<g clip-path="url(#clip0)">
<path d="M2.9825 51.485C6.45723 63.2843 16.4731 87.3534 33.3977 85.1929C50.3727 83.0259 43.7436 61.2778 59.283 58.297C66.1236 56.9848 70.7604 68.7478 77.6161 68.3818C86.446 67.9105 90.9403 59.2263 93.4077 51.9258C98.6395 36.4461 90.8046 10.1973 72.467 5.65113C56.4647 1.68405 54.5929 21.11 40.6788 15.4675C32.8581 12.2961 33.6395 2.82538 24.1146 0.914383C-4.70045 -4.86673 -1.64115 35.7848 2.9825 51.485Z" fill="url(#paint0_linear)"/>
<path d="M23.8477 86.5424C23.3354 86.5424 22.9199 86.1298 22.9199 85.6206C22.9199 85.0106 22.4206 84.5145 21.8066 84.5145C21.2943 84.5145 20.8789 84.1019 20.8789 83.5927C20.8789 83.0835 21.2943 82.6709 21.8066 82.6709C22.4206 82.6709 22.9199 82.1749 22.9199 81.5648C22.9199 81.0556 23.3354 80.6431 23.8477 80.6431C24.36 80.6431 24.7754 81.0556 24.7754 81.5648C24.7754 82.1749 25.2747 82.6709 25.8887 82.6709C26.401 82.6709 26.8164 83.0835 26.8164 83.5927C26.8164 84.1019 26.401 84.5145 25.8887 84.5145C25.2747 84.5145 24.7754 85.0106 24.7754 85.6206C24.7754 86.1298 24.36 86.5424 23.8477 86.5424Z" fill="#01ECA5"/>
<path d="M14.7964 84.8832C14.2841 84.8832 13.8687 84.4706 13.8687 83.9614C13.8687 83.3514 13.3693 82.8553 12.7554 82.8553C12.2431 82.8553 11.8276 82.4427 11.8276 81.9335C11.8276 81.4244 12.2431 81.0118 12.7554 81.0118C13.3693 81.0118 13.8687 80.5157 13.8687 79.9057C13.8687 79.3965 14.2841 78.9839 14.7964 78.9839C15.3087 78.9839 15.7241 79.3965 15.7241 79.9057C15.7241 80.5157 16.2234 81.0118 16.8374 81.0118C17.3497 81.0118 17.7651 81.4244 17.7651 81.9335C17.7651 82.4427 17.3497 82.8553 16.8374 82.8553C16.2234 82.8553 15.7241 83.3514 15.7241 83.9614C15.7241 84.4706 15.3087 84.8832 14.7964 84.8832Z" fill="#FF5BA8"/>
<path d="M68.5498 5.87866C67.0875 5.87866 65.8979 4.69679 65.8979 3.24411C65.8979 1.79125 67.0875 0.609375 68.5498 0.609375C70.012 0.609375 71.2015 1.79125 71.2015 3.24411C71.2015 4.69679 70.012 5.87866 68.5498 5.87866ZM68.5498 2.45288C68.1108 2.45288 67.7535 2.80794 67.7535 3.24411C67.7535 3.68028 68.1108 4.03516 68.5498 4.03516C68.9888 4.03516 69.346 3.68028 69.346 3.24411C69.346 2.80794 68.989 2.45288 68.5498 2.45288Z" fill="#6583FE"/>
<path d="M66.0398 86.2274C64.5777 86.2274 63.3882 85.0455 63.3882 83.5926C63.3882 82.1399 64.5777 80.958 66.0398 80.958C67.5019 80.958 68.6914 82.1399 68.6914 83.5926C68.6914 85.0455 67.5019 86.2274 66.0398 86.2274ZM66.0398 82.8016C65.6008 82.8016 65.2436 83.1564 65.2436 83.5926C65.2436 84.0288 65.6008 84.3839 66.0398 84.3839C66.4788 84.3839 66.836 84.0288 66.836 83.5926C66.836 83.1564 66.4788 82.8016 66.0398 82.8016Z" fill="#6583FE"/>
<path fill-rule="evenodd" clip-rule="evenodd" d="M42.1581 8.85812C42.1581 7.49026 41.0338 6.37207 39.6585 6.37207H15.7223C14.3468 6.37207 13.2227 7.49012 13.2227 8.85812V19.484C13.2227 20.8519 14.347 21.9701 15.7223 21.9701H39.6583C41.0338 21.9701 42.1579 20.852 42.1579 19.484V8.85812H42.1581Z" fill="#FFDB4E"/>
<path fill-rule="evenodd" clip-rule="evenodd" d="M62.2949 30.5382C61.8365 28.8254 60.9434 27.3465 59.7673 26.1769C57.3753 23.8058 53.8152 22.7314 50.3228 23.6632C48.6006 24.1191 47.1095 25.0073 45.9374 26.1769C43.5534 28.5557 42.473 32.0964 43.4059 35.5697C44.3188 38.9477 46.9103 41.4338 50.0477 42.3695C52.4079 43.1466 56.0915 45.1013 59.4684 40.2165C61.4578 38.3926 62.6338 35.7997 62.6297 33.056C62.6299 32.2233 62.5222 31.3788 62.2949 30.5382Z" fill="#B1D7FE"/>
<path fill-rule="evenodd" clip-rule="evenodd" d="M29.7715 44.4231C26.929 39.5226 20.6259 37.8414 15.6984 40.6723C10.7708 43.5032 9.08052 49.7678 11.9269 54.6684C14.7694 59.573 21.0725 61.2501 26 58.4192C30.9277 55.5922 32.618 49.3237 29.7715 44.4231Z" fill="#FF8389"/>
<path fill-rule="evenodd" clip-rule="evenodd" d="M24.5612 47.4166C23.3772 45.3747 20.7579 44.6768 18.7047 45.8544C16.6555 47.032 15.954 49.6408 17.138 51.6788C18.3221 53.7168 20.9414 54.4145 22.9945 53.237C25.0436 52.0595 25.7453 49.4546 24.5612 47.4166Z" fill="#E7ECF1"/>
<path fill-rule="evenodd" clip-rule="evenodd" d="M61.2667 45.3626V42.9876C61.2667 41.5047 60.4654 40.577 59.4686 40.2161C57.8301 39.6174 55.6574 40.5412 55.6574 42.9876V33.3014C55.6574 29.3683 50.0482 29.3683 50.0482 33.3014V42.3691V53.3239C50.0482 55.4411 49.5976 57.0391 48.1584 55.2587C45.9378 52.0472 44.3073 50.2987 41.1896 50.8379C39.3597 51.1591 38.662 52.848 39.9139 54.4499L48.7962 67.4071C50.6978 70.1864 50.961 71.9548 50.961 74.4329C50.961 75.1902 51.5869 75.8126 52.3523 75.8126H68.9688C69.7343 75.8126 70.3602 75.1902 70.3602 74.4329V71.7367V70.1587C70.3602 66.5745 72.0066 66.9115 72.4811 62.5303C72.4811 57.5981 72.4811 52.6697 72.4811 47.7374C72.4811 43.8043 66.8758 43.8002 66.8758 47.7374V45.3624C66.8759 41.4294 61.2667 41.4294 61.2667 45.3626Z" fill="#FFECE4"/>
<path fill-rule="evenodd" clip-rule="evenodd" d="M42.1582 8.85812C42.1582 7.49026 41.0339 6.37207 39.6586 6.37207H34.5557C35.9311 6.37207 37.0553 7.49012 37.0553 8.85812V11.6018V16.6253V19.484C37.0553 20.8519 35.931 21.9701 34.5557 21.9701H39.6586C41.0341 21.9701 42.1582 20.852 42.1582 19.484V8.85812Z" fill="#FFAF5D"/>
<path fill-rule="evenodd" clip-rule="evenodd" d="M62.2948 30.5383C61.8364 28.8254 60.9433 27.3465 59.7672 26.1769C57.3752 23.8058 53.8152 22.7314 50.3228 23.6632C49.1068 23.9844 48.0105 24.5236 47.0576 25.2213C50.3785 24.5236 53.7075 25.6099 55.9759 27.8619C57.1519 29.0276 58.045 30.5105 58.5034 32.2194C58.7307 33.0638 58.8383 33.9085 58.8383 34.7371C58.8422 36.8148 58.1685 38.8051 56.9805 40.4387C57.722 39.9947 58.6588 39.9194 59.4681 40.2167C61.4575 38.3928 62.6336 35.7999 62.6295 33.0562C62.6298 32.2233 62.5221 31.3788 62.2948 30.5383Z" fill="#8BC6F8"/>
<path fill-rule="evenodd" clip-rule="evenodd" d="M72.4811 47.7374C72.4811 45.1048 69.9695 44.2324 68.307 45.1245C69.1283 45.5646 69.7383 46.4369 69.7383 47.7374V62.5304C69.2638 66.9116 67.6174 66.5746 67.6174 70.1588V71.7368V74.433C67.6174 75.1903 66.9915 75.8127 66.2261 75.8127H68.969C69.7344 75.8127 70.3603 75.1903 70.3603 74.433V71.7368V70.1588C70.3603 66.5746 72.0067 66.9116 72.4812 62.5304C72.4812 59.7194 72.4812 56.9082 72.4812 54.1011V53.2051V47.7374H72.4811Z" fill="#FFDDCE"/>
<path fill-rule="evenodd" clip-rule="evenodd" d="M78.2336 33.0557C78.2336 30.8869 76.4675 29.1265 74.2868 29.1265C72.1061 29.1265 70.3359 30.8869 70.3359 33.0557C70.3359 35.2244 72.106 36.981 74.2868 36.981C76.4675 36.981 78.2336 35.2245 78.2336 33.0557Z" fill="#FF8389"/>
<path fill-rule="evenodd" clip-rule="evenodd" d="M77.6838 9.74229C75.3317 7.40296 71.5123 7.40296 69.1602 9.74229C66.804 12.0816 66.804 15.8799 69.1602 18.2192C71.5123 20.5625 75.3317 20.5625 77.6838 18.2192C80.04 15.8799 80.04 12.0815 77.6838 9.74229Z" fill="#FF8389"/>
<path fill-rule="evenodd" clip-rule="evenodd" d="M77.6837 18.219C80.0398 15.8797 80.0398 12.0815 77.6837 9.74222C75.9615 8.02942 73.4498 7.56947 71.3091 8.36642C72.3456 8.61623 73.3303 9.14353 74.1436 9.95236C76.4957 12.2917 76.4957 16.0899 74.1436 18.4292C73.5138 19.0557 72.7762 19.5155 71.9948 19.805C73.9721 20.2848 76.1408 19.7534 77.6837 18.219Z" fill="#FF6677"/>
<path fill-rule="evenodd" clip-rule="evenodd" d="M78.2339 33.0557C78.2339 30.8869 76.4678 29.1265 74.2871 29.1265C73.5655 29.1265 72.8877 29.3207 72.3057 29.6578C73.709 30.2565 74.6938 31.6481 74.6938 33.2658C74.6938 34.713 73.9004 35.9817 72.7243 36.6597C73.2027 36.866 73.7289 36.981 74.2871 36.981C76.4678 36.981 78.2339 35.2245 78.2339 33.0557Z" fill="#FF6677"/>
<path fill-rule="evenodd" clip-rule="evenodd" d="M25.6852 44.5179C28.5317 49.4184 26.8413 55.687 21.9138 58.5139C20.9969 59.0412 20.0281 59.414 19.0473 59.636C21.3556 60.0444 23.8114 59.6757 26.0001 58.4188C30.9276 55.5918 32.618 49.3233 29.7715 44.4227C27.4592 40.434 22.8546 38.5785 18.5649 39.5499C21.4513 40.0614 24.1025 41.79 25.6852 44.5179Z" fill="#FF6677"/>
<path d="M37.151 10.5537H26.1396C25.557 10.5537 25.085 11.0229 25.085 11.6016C25.085 12.1803 25.557 12.6494 26.1396 12.6494H37.151C37.7336 12.6494 38.2057 12.1803 38.2057 11.6016C38.2057 11.0229 37.7336 10.5537 37.151 10.5537Z" fill="black"/>
<path d="M17.4966 12.6494H20.7058C21.2884 12.6494 21.7605 12.1803 21.7605 11.6016C21.7605 11.0229 21.2884 10.5537 20.7058 10.5537H17.4966C16.914 10.5537 16.4419 11.0229 16.4419 11.6016C16.4419 12.1803 16.9141 12.6494 17.4966 12.6494Z" fill="black"/>
<path d="M17.4966 17.673H28.5078C29.0904 17.673 29.5625 17.2038 29.5625 16.6251C29.5625 16.0463 29.0904 15.5771 28.5078 15.5771H17.4966C16.914 15.5771 16.4419 16.0463 16.4419 16.6251C16.4419 17.2038 16.9141 17.673 17.4966 17.673Z" fill="black"/>
<path d="M37.1508 15.5771H33.9414C33.3588 15.5771 32.8867 16.0463 32.8867 16.6251C32.8867 17.2038 33.3588 17.673 33.9414 17.673H37.1508C37.7334 17.673 38.2054 17.2038 38.2054 16.6251C38.2054 16.0463 37.7334 15.5771 37.1508 15.5771Z" fill="black"/>
<path d="M74.2871 28.0786C71.8886 28.0786 69.8796 29.765 69.3942 32.0078H63.6328C63.5748 31.4261 63.4698 30.8443 63.314 30.2673C62.9078 28.7576 62.1913 27.3844 61.222 26.2126L68.4656 19.0086C69.7965 20.3083 71.5533 21.0244 73.4219 21.0244C75.3147 21.0244 77.0935 20.2909 78.4292 18.9603C79.7681 17.631 80.5055 15.8624 80.5055 13.9806C80.5055 12.0987 79.7681 10.3302 78.4297 9.0015C77.0928 7.67193 75.3145 6.9398 73.4219 6.9398C71.5294 6.9398 69.7511 7.67207 68.4141 9.0015C67.0755 10.3308 66.3384 12.0991 66.3384 13.9806C66.3384 15.1664 66.6317 16.3069 67.1831 17.3208C67.1762 17.3273 67.1689 17.3328 67.1623 17.3396L59.7289 24.7323C59.2727 24.361 58.7847 24.0221 58.2638 23.7234C55.7589 22.2865 52.8418 21.9056 50.0504 22.6504C48.5087 23.0604 47.1342 23.7836 45.9764 24.7323L42.636 21.4103C43.0003 20.8557 43.213 20.1942 43.213 19.4837V8.85801C43.2129 6.90948 41.6185 5.32422 39.6586 5.32422H15.7224C13.7626 5.32422 12.1681 6.90948 12.1681 8.85801V19.4838C12.1681 21.4324 13.7626 23.0176 15.7224 23.0176H24.0346C24.6172 23.0176 25.0893 22.5484 25.0893 21.9697C25.0893 21.391 24.6172 20.9218 24.0346 20.9218H15.7224C14.9256 20.9218 14.2775 20.2767 14.2775 19.4838V8.85801C14.2775 8.0651 14.9256 7.42001 15.7224 7.42001H39.6586C40.4554 7.42001 41.1035 8.0651 41.1035 8.85801V19.4838C41.1035 20.2767 40.4554 20.9218 39.6586 20.9218H28.9064C28.3238 20.9218 27.8517 21.391 27.8517 21.9697C27.8517 22.5484 28.3238 23.0176 28.9064 23.0176H39.6586C40.135 23.0176 40.5894 22.9233 41.0049 22.7536L44.4888 26.2183C42.5136 28.6155 41.5975 31.8253 42.2088 35.0465L29.5704 42.3064C29.5695 42.3069 29.5687 42.3076 29.5678 42.308C28.08 40.5274 26.0825 39.2465 23.787 38.6352C20.857 37.8549 17.7968 38.2562 15.1706 39.7649C9.74739 42.8806 7.88242 49.8011 11.0131 55.1909C12.5282 57.8055 14.9768 59.6752 17.9077 60.4562C18.886 60.7169 19.8786 60.8459 20.8649 60.8459C22.8337 60.8459 24.7772 60.3319 26.528 59.3262C31.9054 56.2405 33.7822 49.4143 30.7634 44.0422L42.8186 37.1174C43.9478 39.8881 46.1638 42.0498 48.9933 43.1184V52.7691V53.3242C48.9933 53.8525 48.9639 54.2397 48.9259 54.5193C46.7798 51.4316 44.8038 49.1498 41.0061 49.8064C39.761 50.0249 38.8185 50.7384 38.4207 51.7643C38.015 52.8102 38.2478 54.0115 39.0595 55.0654L47.924 67.9966C49.6202 70.4755 49.9063 71.9856 49.9063 74.4331C49.9063 75.7717 51.0036 76.8607 52.3524 76.8607H68.9689C70.3178 76.8607 71.4151 75.7717 71.4151 74.4331V70.1591C71.4151 68.6048 71.7415 67.973 72.1933 67.0988C72.6747 66.1673 73.2739 65.008 73.5299 62.6427C73.5339 62.6054 73.536 62.5681 73.536 62.5306V58.9424C73.536 58.3636 73.0639 57.8945 72.4813 57.8945C71.8987 57.8945 71.4266 58.3636 71.4266 58.9424V62.4735C71.2099 64.4132 70.7558 65.2918 70.3168 66.1414C69.8197 67.1034 69.3057 68.0981 69.3057 70.1589V74.4329C69.3057 74.6129 69.1514 74.7648 68.9689 74.7648H52.3522C52.1697 74.7648 52.0156 74.6128 52.0156 74.4329C52.0156 71.6578 51.6525 69.7181 49.6679 66.8174L40.7856 53.8602C40.7732 53.8423 40.7602 53.8246 40.7469 53.8074C40.3824 53.341 40.2519 52.871 40.3889 52.5178C40.5146 52.1939 40.8732 51.9578 41.3703 51.8704C43.8052 51.4492 45.1091 52.6995 47.2889 55.8523C47.3037 55.8738 47.3196 55.8948 47.3359 55.9152C48.1315 56.8994 48.9277 57.2611 49.702 56.9905C50.6708 56.6518 51.1026 55.521 51.1026 53.3241V52.769V33.3016C51.1026 31.8977 52.0453 31.3996 52.8524 31.3996C53.6598 31.3996 54.6024 31.8977 54.6024 33.3016V51.3735C54.6024 51.9522 55.0745 52.4214 55.6571 52.4214C56.2397 52.4214 56.7118 51.9522 56.7118 51.3735V42.9878C56.7118 41.5839 57.6545 41.0858 58.4617 41.0858C58.6562 41.0858 58.8584 41.1155 59.0534 41.1791C59.0851 41.1925 59.1171 41.2044 59.1496 41.2146C59.7237 41.439 60.2116 41.9783 60.2116 42.9878V52.773C60.2116 53.3518 60.6837 53.8209 61.2663 53.8209C61.8489 53.8209 62.321 53.3518 62.321 52.773V45.3627C62.321 43.9588 63.2636 43.4607 64.0709 43.4607C64.8781 43.4607 65.8207 43.9588 65.8207 45.3627V54.1726C65.8207 54.7513 66.2928 55.2205 66.8754 55.2205C67.458 55.2205 67.9301 54.7513 67.9301 54.1726V47.7377C67.9301 46.3327 68.8712 45.8341 69.6771 45.8341C70.1348 45.8341 70.5739 45.9993 70.8814 46.2871C71.2428 46.6252 71.426 47.1133 71.426 47.7375V54.1011C71.426 54.6798 71.8981 55.149 72.4807 55.149C73.0633 55.149 73.5354 54.6798 73.5354 54.1011V47.7375C73.5354 45.1119 71.5944 43.7382 69.677 43.7382C69.0253 43.7382 68.3713 43.8975 67.7913 44.2103C67.3152 42.3377 65.6847 41.3648 64.0707 41.3648C63.4182 41.3648 62.7631 41.5241 62.1825 41.8372C61.9905 41.081 61.6106 40.4716 61.1194 40.0136C62.5584 38.3242 63.4239 36.2607 63.6349 34.1035H69.3939C69.8796 36.3441 71.8884 38.0288 74.2866 38.0288C77.0444 38.0288 79.2881 35.7979 79.2881 33.0557C79.2885 30.3113 77.0449 28.0786 74.2871 28.0786ZM69.9058 10.4835C69.9059 10.4834 69.9062 10.4831 69.9063 10.483C70.8447 9.54976 72.0933 9.03573 73.4219 9.03573C74.7506 9.03573 75.9992 9.54976 76.9381 10.4835C77.8783 11.417 78.3961 12.6589 78.3961 13.9807C78.3961 15.3024 77.8782 16.5446 76.9369 17.4791C75.9986 18.4139 74.7503 18.9287 73.4219 18.9287C72.0936 18.9287 70.8453 18.414 69.9058 17.478C68.9655 16.5446 68.4477 15.3026 68.4477 13.9808C68.4477 12.6591 68.9655 11.4168 69.9058 10.4835ZM25.4728 57.5115C25.4725 57.5116 25.4723 57.5116 25.4722 57.5118C23.3325 58.7412 20.8399 59.0678 18.4542 58.432C16.0681 57.7962 14.0747 56.2739 12.8406 54.1444C10.2903 49.7537 11.8092 44.117 16.2264 41.5793C17.6511 40.7609 19.2323 40.3427 20.8348 40.3427C21.6372 40.3427 22.4451 40.4477 23.241 40.6596C25.6284 41.2953 27.6232 42.8177 28.858 44.9466C31.41 49.3401 29.8912 54.9766 25.4728 57.5115ZM61.576 33.0721C61.5743 35.2766 60.7246 37.4184 59.1571 39.0507C58.9273 39.0105 58.6944 38.99 58.4618 38.99C57.8607 38.99 57.2571 39.1251 56.7119 39.3911V33.3016C56.7119 30.6769 54.7704 29.3038 52.8526 29.3038C50.9347 29.3038 48.9934 30.6769 48.9934 33.3016V40.8359C46.7528 39.7433 45.0883 37.7529 44.4251 35.2987C43.1815 30.6764 45.9497 25.9107 50.5968 24.6748C52.8441 24.0752 55.1927 24.3816 57.2093 25.5386C59.2294 26.6973 60.6737 28.5688 61.2766 30.8095C61.4753 31.5453 61.5737 32.291 61.5767 33.0301C61.5765 33.0386 61.5754 33.047 61.5754 33.0557C61.5753 33.0612 61.576 33.0665 61.576 33.0721ZM74.2871 35.933C72.6901 35.933 71.3909 34.6423 71.3909 33.0557C71.3909 31.4669 72.69 30.1743 74.2871 30.1743C75.8819 30.1743 77.1792 31.4669 77.1792 33.0557C77.1792 34.6422 75.8819 35.933 74.2871 35.933Z" fill="black"/>
<path d="M22.2318 44.4156C20.8544 44.0486 19.4145 44.2368 18.1763 44.9468C15.6266 46.4119 14.7509 49.6667 16.2241 52.2022C16.9377 53.4305 18.0894 54.3088 19.4669 54.6754C19.9266 54.7976 20.393 54.8583 20.8566 54.8583C21.7826 54.8583 22.6971 54.6167 23.5213 54.144C23.5214 54.1439 23.5217 54.1437 23.522 54.1436C26.0707 52.6792 26.9465 49.4261 25.4747 46.893C24.7612 45.6628 23.6096 44.7831 22.2318 44.4156ZM22.4659 52.3293C21.7174 52.7586 20.8461 52.873 20.0129 52.651C19.1795 52.4292 18.4828 51.8976 18.051 51.1544C17.1589 49.6189 17.6889 47.648 19.2317 46.7615C19.7308 46.4752 20.284 46.3291 20.8442 46.3291C21.1248 46.3291 21.4071 46.3657 21.685 46.4399C22.5182 46.662 23.215 47.1945 23.6473 47.9401C24.5384 49.4739 24.0086 51.443 22.4659 52.3293Z" fill="black"/>
</g>
<defs>
<linearGradient id="paint0_linear" x1="12.7233" y1="75.0228" x2="72.8334" y2="2.92218" gradientUnits="userSpaceOnUse">
<stop stop-color="#D2DEFF" stop-opacity="0"/>
<stop offset="0.6852" stop-color="#D2DEFF"/>
</linearGradient>
<clipPath id="clip0">
<rect width="95" height="87" fill="white"/>
</clipPath>
</defs>
</svg>
