<svg width="49" height="49" viewBox="0 0 49 49" fill="none" xmlns="http://www.w3.org/2000/svg">
<g clip-path="url(#clip0)">
<path d="M3.06255 3.33395C-0.788032 7.33357 5.07683e-05 11.5823 5.07683e-05 24.4897C5.07683e-05 35.2085 -1.87012 45.9537 7.91763 48.4834C10.974 49.2694 38.0547 49.2694 41.107 48.4793C45.1821 47.4278 48.4978 44.1224 48.951 38.3587C49.0143 37.5543 49.0143 11.4394 48.949 10.6186C48.4672 4.47932 44.688 0.941115 39.7084 0.22449C38.5671 0.0591149 38.3385 0.0101149 32.483 -9.34675e-05C11.7131 0.0101149 7.16018 -0.91476 3.06255 3.33395Z" fill="url(#paint0_linear)"/>
<path d="M24.4958 6.40873C17.0825 6.40873 10.0429 5.74927 7.35398 12.6501C6.24332 15.5003 6.40461 19.2018 6.40461 24.502C6.40461 29.1529 6.25557 33.5241 7.35398 36.3518C10.0367 43.2567 17.1336 42.5952 24.4917 42.5952C31.5906 42.5952 38.91 43.3343 41.6315 36.3518C42.7442 33.4731 42.5809 29.8266 42.5809 24.502C42.5809 17.4337 42.9709 12.8706 39.5429 9.44468C36.0721 5.97385 31.3783 6.40873 24.4877 6.40873H24.4958ZM22.8747 9.66927C38.3383 9.64477 40.3065 7.92569 39.2203 31.8071C38.8344 40.2534 32.4032 39.3265 24.4979 39.3265C10.0837 39.3265 9.66923 38.9141 9.66923 24.4938C9.66923 9.9061 10.8126 9.67744 22.8747 9.66519V9.66927ZM34.1529 12.6726C32.9544 12.6726 31.9826 13.6444 31.9826 14.8429C31.9826 16.0413 32.9544 17.0131 34.1529 17.0131C35.3514 17.0131 36.3232 16.0413 36.3232 14.8429C36.3232 13.6444 35.3514 12.6726 34.1529 12.6726ZM24.4958 15.2104C19.3651 15.2104 15.2062 19.3713 15.2062 24.502C15.2062 29.6327 19.3651 33.7916 24.4958 33.7916C29.6265 33.7916 33.7834 29.6327 33.7834 24.502C33.7834 19.3713 29.6265 15.2104 24.4958 15.2104ZM24.4958 18.4709C32.4685 18.4709 32.4787 30.5331 24.4958 30.5331C16.5252 30.5331 16.5129 18.4709 24.4958 18.4709Z" fill="white"/>
</g>
<defs>
<linearGradient id="paint0_linear" x1="3.15651" y1="45.8702" x2="48.6968" y2="6.45561" gradientUnits="userSpaceOnUse">
<stop stop-color="#FFDD55"/>
<stop offset="0.5" stop-color="#FF543E"/>
<stop offset="1" stop-color="#C837AB"/>
</linearGradient>
<clipPath id="clip0">
<rect width="49" height="49" fill="white"/>
</clipPath>
</defs>
</svg>
