<svg width="95" height="87" viewBox="0 0 95 87" fill="none" xmlns="http://www.w3.org/2000/svg">
<path d="M2.96423 52.1451C6.41768 63.9482 16.3722 88.0248 33.1932 85.8637C50.0641 83.6959 43.4757 61.941 58.9199 58.9593C65.7185 57.6467 70.327 69.4133 77.1407 69.0473C85.9165 68.5758 90.3832 59.8889 92.8355 52.5861C98.0354 37.1015 90.2484 10.8444 72.0232 6.29684C56.1189 2.32851 54.2585 21.7606 40.4296 16.1163C32.6569 12.9439 33.4334 3.4702 23.9669 1.5586C-4.67166 -4.22433 -1.6311 36.44 2.96423 52.1451V52.1451Z" fill="url(#paint0_linear)"/>
<path d="M37.1839 43.4616V72.9579L25.0223 74.4206L11.0095 72.9579V43.4616L25.1249 41.9989L37.1839 43.4616Z" fill="#F9F8F8"/>
<path d="M37.1839 39.4844V43.4616H11.0095V39.4844C11.0095 37.0607 12.974 35.0962 15.3978 35.0962H32.7957C35.2194 35.0962 37.1839 37.0607 37.1839 39.4844Z" fill="#3EA6FF"/>
<path d="M37.1839 72.9579V75.9068C37.1839 78.3306 35.2194 80.295 32.7957 80.295H15.3978C12.974 80.295 11.0095 78.3306 11.0095 75.9068V72.9579H37.1839Z" fill="#3EA6FF"/>
<path d="M13.9355 43.1588V73.2636L11.01 72.9579V43.4616L13.9355 43.1588Z" fill="#EDE8E5"/>
<path d="M18.3237 35.0962C15.9 35.0962 13.9355 37.0607 13.9355 39.4844V43.4616H11.01V39.4844C11.01 37.0607 12.9745 35.0962 15.3982 35.0962H18.3237Z" fill="#0A66C2"/>
<path d="M18.3237 80.295H15.3982C12.9745 80.295 11.01 78.3306 11.01 75.9068V72.9579H13.9355V75.9068C13.9355 78.3306 15.9 80.295 18.3237 80.295Z" fill="#0A66C2"/>
<path d="M27.7169 40.1555H20.3495C19.7436 40.1555 19.2524 39.6645 19.2524 39.0585C19.2524 38.4525 19.7436 37.9614 20.3495 37.9614H27.7169C28.3228 37.9614 28.814 38.4525 28.814 39.0585C28.814 39.6645 28.3228 40.1555 27.7169 40.1555V40.1555Z" fill="#535A61"/>
<path d="M83.553 15.6695V45.1658L71.3915 46.6285L57.3787 45.1658V15.6695L71.494 14.2068L83.553 15.6695Z" fill="#F9F8F8"/>
<path d="M83.553 11.6923V15.6695H57.3787V11.6923C57.3787 9.26848 59.3431 7.30402 61.7669 7.30402H79.1648C81.5886 7.30402 83.553 9.26848 83.553 11.6923Z" fill="#FF8389"/>
<path d="M83.553 45.1658V48.1147C83.553 50.5384 81.5886 52.5029 79.1648 52.5029H61.7669C59.3431 52.5029 57.3787 50.5384 57.3787 48.1147V45.1658H83.553Z" fill="#FF8389"/>
<path d="M60.3044 15.3667V45.4714L57.3789 45.1657V15.6695L60.3044 15.3667Z" fill="#EDE8E5"/>
<path d="M64.6926 7.30402C62.2689 7.30402 60.3044 9.26848 60.3044 11.6923V15.6695H57.3789V11.6923C57.3789 9.26848 59.3434 7.30402 61.7671 7.30402H64.6926Z" fill="#FF6677"/>
<path d="M64.6926 52.5029H61.7671C59.3434 52.5029 57.3789 50.5384 57.3789 48.1147V45.1658H60.3044V48.1147C60.3044 50.5384 62.2689 52.5029 64.6926 52.5029Z" fill="#FF6677"/>
<path d="M74.0856 12.3634H66.7182C66.1123 12.3634 65.6211 11.8723 65.6211 11.2663C65.6211 10.6603 66.1123 10.1693 66.7182 10.1693H74.0856C74.6914 10.1693 75.1826 10.6603 75.1826 11.2663C75.1826 11.8723 74.6914 12.3634 74.0856 12.3634Z" fill="#BAC2CB"/>
<path d="M31.6344 57.2422V58.1491C31.6344 58.367 31.6183 58.5821 31.5876 58.7927H29.4403C28.8347 58.7927 28.3433 58.3012 28.3433 57.6956C28.3433 57.0901 28.8347 56.5986 29.4403 56.5986H31.5876C31.6183 56.8092 31.6344 57.0242 31.6344 57.2422V57.2422Z" fill="#EAD246"/>
<path d="M71.2456 30.3063C71.6004 29.8869 71.5672 29.2176 71.1729 28.8351L67.2966 24.9588C66.8682 24.5305 66.1735 24.5305 65.7452 24.9588C65.3168 25.3874 65.3168 26.0819 65.7452 26.5103L67.7486 28.5138H54.4533C49.8155 28.5138 46.0425 32.2869 46.0425 36.9246V50.3819C46.0425 53.8098 43.2538 56.5986 39.8258 56.5986H29.4403C28.8345 56.5986 28.3433 57.0896 28.3433 57.6956C28.3433 58.3016 28.8345 58.7927 29.4403 58.7927H39.8258C44.4636 58.7927 48.2366 55.0197 48.2366 50.3819V36.9246C48.2366 33.4967 51.0253 30.708 54.4533 30.708H67.7486L65.7452 32.7113C65.3168 33.1399 65.3168 33.8344 65.7452 34.2629C65.9594 34.477 66.2402 34.5841 66.5209 34.5841C66.8016 34.5841 67.0825 34.477 67.2966 34.2629L71.1729 30.3866C71.1979 30.3606 71.2228 30.3344 71.2456 30.3063V30.3063Z" fill="#EEDD55"/>
<path d="M31.6344 57.2422V58.1491C31.6344 58.367 31.6183 58.5821 31.5876 58.7927H29.4403C28.8347 58.7927 28.3433 58.3012 28.3433 57.6956C28.3433 57.0901 28.8347 56.5986 29.4403 56.5986H31.5876C31.6183 56.8092 31.6344 57.0242 31.6344 57.2422V57.2422Z" fill="#EAD246"/>
<path d="M27.1001 54.9022C28.3928 54.9022 29.4405 55.95 29.4405 57.2426V58.1486C29.4405 59.4412 28.3928 60.489 27.1001 60.489H20.9566C19.664 60.489 18.6162 59.4412 18.6162 58.1486V57.2426C18.6162 55.95 19.664 54.9022 20.9566 54.9022H27.1001Z" fill="#FFDB4E"/>
<path d="M23.1507 60.4894H20.9566C19.6635 60.4894 18.6162 59.4406 18.6162 58.149V57.2421C18.6162 55.9505 19.6635 54.9017 20.9566 54.9017H23.1507C21.8577 54.9017 20.8103 55.9505 20.8103 57.2421V58.149C20.8103 59.4406 21.8577 60.4894 23.1507 60.4894Z" fill="#FFAF5D"/>
<path d="M20.3073 40.3491H27.757C28.3629 40.3491 28.8541 39.8581 28.8541 39.2521C28.8541 38.6461 28.3629 38.155 27.757 38.155H20.3073C19.7014 38.155 19.2102 38.6461 19.2102 39.2521C19.2102 39.8581 19.7014 40.3491 20.3073 40.3491Z" fill="black"/>
<path d="M83.5535 37.5097C84.1594 37.5097 84.6505 37.0186 84.6505 36.4126V11.9116C84.6505 8.88696 82.1899 6.42633 79.1653 6.42633H69.3009C68.6951 6.42633 68.2039 6.91737 68.2039 7.52339C68.2039 8.1294 68.6951 8.62045 69.3009 8.62045H79.1653C80.9801 8.62045 82.4564 10.0969 82.4564 11.9116V14.7912H58.4768V11.9116C58.4768 10.0969 59.9531 8.62045 61.7679 8.62045H64.1815C64.7873 8.62045 65.2785 8.1294 65.2785 7.52339C65.2785 6.91737 64.7873 6.42633 64.1815 6.42633H61.7679C58.7433 6.42633 56.2826 8.88696 56.2826 11.9116V28.5138H54.4542C49.8164 28.5138 46.0434 32.2868 46.0434 36.9246V50.3818C46.0434 53.8098 43.2547 56.5985 39.8268 56.5985H38.4278V39.7038C38.4278 36.6791 35.9672 34.2185 32.9425 34.2185H15.2526C12.228 34.2185 9.76733 36.6791 9.76733 39.7038V75.8336C9.76733 78.8583 12.228 81.3189 15.2526 81.3189H16.0571C16.663 81.3189 17.1542 80.8279 17.1542 80.2218C17.1542 79.6158 16.663 79.1248 16.0571 79.1248H15.2526C13.4378 79.1248 11.9615 77.6483 11.9615 75.8336V74.0289H36.2337V75.8336C36.2337 77.6483 34.7573 79.1248 32.9425 79.1248H21.1767C20.5709 79.1248 20.0797 79.6158 20.0797 80.2218C20.0797 80.8279 20.5709 81.3189 21.1767 81.3189H32.9425C35.9672 81.3189 38.4278 78.8583 38.4278 75.8336V58.7926H39.8268C44.4645 58.7926 48.2375 55.0196 48.2375 50.3818V36.9246C48.2375 33.4966 51.0263 30.7079 54.4542 30.7079H56.2826V48.334C56.2826 51.3586 58.7433 53.8193 61.7679 53.8193H79.1654C82.1901 53.8193 84.6507 51.3586 84.6507 48.334V41.5322C84.6507 40.9262 84.1595 40.4352 83.5536 40.4352C82.9478 40.4352 82.4566 40.9262 82.4566 41.5322V44.2877H58.4768V30.7079H67.7495L65.7462 32.7113C65.3177 33.1399 65.3177 33.8344 65.7462 34.2628C65.9603 34.477 66.2412 34.584 66.5219 34.584C66.8026 34.584 67.0834 34.477 67.2976 34.2628L71.1738 30.3865C71.5979 29.9776 71.5977 29.2438 71.1738 28.835L67.2976 24.9587C66.8691 24.5304 66.1745 24.5304 65.7462 24.9587C65.3177 25.3873 65.3177 26.0818 65.7462 26.5103L67.7495 28.5138H58.4768V16.9853H82.4566V36.4126C82.4564 37.0186 82.9476 37.5097 83.5535 37.5097ZM15.2526 36.4126H32.9425C34.7573 36.4126 36.2337 37.8891 36.2337 39.7038V42.5289H11.9615V39.7038C11.9615 37.8891 13.4378 36.4126 15.2526 36.4126ZM36.2337 71.8347H11.9615V44.7231H36.2337V56.5985H30.4769C30.1744 55.01 28.776 53.8051 27.1009 53.8051H26.7352C26.1293 53.8051 25.6381 54.2961 25.6381 54.9022C25.6381 55.5082 26.1293 55.9992 26.7352 55.9992H27.1009C27.7865 55.9992 28.3442 56.557 28.3442 57.2425V58.1484C28.3442 58.834 27.7865 59.3918 27.1009 59.3918H20.9573C20.2717 59.3918 19.714 58.834 19.714 58.1484V57.2425C19.714 56.557 20.2717 55.9992 20.9573 55.9992H21.6622C22.2681 55.9992 22.7593 55.5082 22.7593 54.9022C22.7593 54.2961 22.2681 53.8051 21.6622 53.8051H20.9573C19.0619 53.8051 17.5199 55.3471 17.5199 57.2425V58.1484C17.5199 60.0438 19.0619 61.5859 20.9573 61.5859H27.1009C28.7762 61.5859 30.1744 60.381 30.4769 58.7925H36.2337V71.8347ZM82.4564 46.4819V48.334C82.4564 50.1487 80.9801 51.6252 79.1653 51.6252H61.7679C59.9531 51.6252 58.4768 50.1487 58.4768 48.334V46.4819H82.4564Z" fill="black"/>
<path d="M66.7184 12.5827H74.0858C74.6917 12.5827 75.1829 12.0917 75.1829 11.4857C75.1829 10.8797 74.6917 10.3886 74.0858 10.3886H66.7184C66.1125 10.3886 65.6213 10.8797 65.6213 11.4857C65.6213 12.0917 66.1125 12.5827 66.7184 12.5827Z" fill="black"/>
<path d="M29.8477 86.5424C29.3354 86.5424 28.9199 86.1298 28.9199 85.6206C28.9199 85.0106 28.4206 84.5145 27.8066 84.5145C27.2943 84.5145 26.8789 84.1019 26.8789 83.5927C26.8789 83.0835 27.2943 82.6709 27.8066 82.6709C28.4206 82.6709 28.9199 82.1749 28.9199 81.5648C28.9199 81.0556 29.3354 80.6431 29.8477 80.6431C30.36 80.6431 30.7754 81.0556 30.7754 81.5648C30.7754 82.1749 31.2747 82.6709 31.8887 82.6709C32.401 82.6709 32.8164 83.0835 32.8164 83.5927C32.8164 84.1019 32.401 84.5145 31.8887 84.5145C31.2747 84.5145 30.7754 85.0106 30.7754 85.6206C30.7754 86.1298 30.36 86.5424 29.8477 86.5424Z" fill="#01ECA5"/>
<path d="M20.7964 84.8832C20.2841 84.8832 19.8687 84.4706 19.8687 83.9614C19.8687 83.3514 19.3693 82.8553 18.7554 82.8553C18.2431 82.8553 17.8276 82.4427 17.8276 81.9335C17.8276 81.4244 18.2431 81.0118 18.7554 81.0118C19.3693 81.0118 19.8687 80.5157 19.8687 79.9057C19.8687 79.3965 20.2841 78.9839 20.7964 78.9839C21.3087 78.9839 21.7241 79.3965 21.7241 79.9057C21.7241 80.5157 22.2234 81.0118 22.8374 81.0118C23.3497 81.0118 23.7651 81.4244 23.7651 81.9335C23.7651 82.4427 23.3497 82.8553 22.8374 82.8553C22.2234 82.8553 21.7241 83.3514 21.7241 83.9614C21.7241 84.4706 21.3087 84.8832 20.7964 84.8832Z" fill="#FF5BA8"/>
<path d="M74.5508 5.87866C73.0885 5.87866 71.8989 4.69679 71.8989 3.24411C71.8989 1.79125 73.0885 0.609375 74.5508 0.609375C76.0129 0.609375 77.2024 1.79125 77.2024 3.24411C77.2024 4.69679 76.0129 5.87866 74.5508 5.87866ZM74.5508 2.45288C74.1118 2.45288 73.7544 2.80794 73.7544 3.24411C73.7544 3.68028 74.1118 4.03516 74.5508 4.03516C74.9898 4.03516 75.347 3.68028 75.347 3.24411C75.347 2.80794 74.99 2.45288 74.5508 2.45288Z" fill="#6583FE"/>
<path d="M72.0398 86.2274C70.5777 86.2274 69.3882 85.0455 69.3882 83.5926C69.3882 82.1399 70.5777 80.958 72.0398 80.958C73.502 80.958 74.6915 82.1399 74.6915 83.5926C74.6915 85.0455 73.502 86.2274 72.0398 86.2274ZM72.0398 82.8016C71.6008 82.8016 71.2437 83.1564 71.2437 83.5926C71.2437 84.0288 71.6008 84.3839 72.0398 84.3839C72.4788 84.3839 72.836 84.0288 72.836 83.5926C72.836 83.1564 72.4788 82.8016 72.0398 82.8016Z" fill="#6583FE"/>
<defs>
<linearGradient id="paint0_linear" x1="12.6454" y1="75.6903" x2="72.8431" y2="3.94948" gradientUnits="userSpaceOnUse">
<stop stop-color="#D2DEFF" stop-opacity="0"/>
<stop offset="0.6852" stop-color="#D2DEFF"/>
</linearGradient>
</defs>
</svg>
