<svg width="95" height="87" viewBox="0 0 95 87" fill="none" xmlns="http://www.w3.org/2000/svg">
<g clip-path="url(#clip0)">
<path d="M2.98249 51.485C6.45723 63.2843 16.4731 87.3534 33.3977 85.1929C50.3727 83.0259 43.7436 61.2778 59.283 58.297C66.1235 56.9848 70.7604 68.7478 77.6161 68.3818C86.4459 67.9105 90.9402 59.2263 93.4076 51.9258C98.6395 36.4461 90.8046 10.1973 72.467 5.65113C56.4647 1.68405 54.5929 21.11 40.6788 15.4675C32.8581 12.2961 33.6395 2.82538 24.1146 0.914383C-4.70045 -4.86673 -1.64115 35.7848 2.98249 51.485Z" fill="url(#paint0_linear)"/>
<path d="M23.8477 86.5424C23.3354 86.5424 22.9199 86.1298 22.9199 85.6206C22.9199 85.0106 22.4206 84.5145 21.8066 84.5145C21.2943 84.5145 20.8789 84.1019 20.8789 83.5927C20.8789 83.0835 21.2943 82.6709 21.8066 82.6709C22.4206 82.6709 22.9199 82.1749 22.9199 81.5648C22.9199 81.0556 23.3354 80.6431 23.8477 80.6431C24.36 80.6431 24.7754 81.0556 24.7754 81.5648C24.7754 82.1749 25.2747 82.6709 25.8887 82.6709C26.401 82.6709 26.8164 83.0835 26.8164 83.5927C26.8164 84.1019 26.401 84.5145 25.8887 84.5145C25.2747 84.5145 24.7754 85.0106 24.7754 85.6206C24.7754 86.1298 24.36 86.5424 23.8477 86.5424Z" fill="#01ECA5"/>
<path d="M14.7964 84.8832C14.2841 84.8832 13.8687 84.4706 13.8687 83.9614C13.8687 83.3514 13.3693 82.8553 12.7554 82.8553C12.2431 82.8553 11.8276 82.4427 11.8276 81.9335C11.8276 81.4244 12.2431 81.0118 12.7554 81.0118C13.3693 81.0118 13.8687 80.5157 13.8687 79.9057C13.8687 79.3965 14.2841 78.9839 14.7964 78.9839C15.3087 78.9839 15.7241 79.3965 15.7241 79.9057C15.7241 80.5157 16.2234 81.0118 16.8374 81.0118C17.3497 81.0118 17.7651 81.4244 17.7651 81.9335C17.7651 82.4427 17.3497 82.8553 16.8374 82.8553C16.2234 82.8553 15.7241 83.3514 15.7241 83.9614C15.7241 84.4706 15.3087 84.8832 14.7964 84.8832Z" fill="#FF5BA8"/>
<path d="M68.5508 5.87866C67.0885 5.87866 65.8989 4.69679 65.8989 3.24411C65.8989 1.79125 67.0885 0.609375 68.5508 0.609375C70.0129 0.609375 71.2024 1.79125 71.2024 3.24411C71.2024 4.69679 70.0129 5.87866 68.5508 5.87866ZM68.5508 2.45288C68.1118 2.45288 67.7544 2.80794 67.7544 3.24411C67.7544 3.68028 68.1118 4.03516 68.5508 4.03516C68.9898 4.03516 69.347 3.68028 69.347 3.24411C69.347 2.80794 68.99 2.45288 68.5508 2.45288Z" fill="#6583FE"/>
<path d="M66.0398 86.2274C64.5777 86.2274 63.3882 85.0455 63.3882 83.5926C63.3882 82.1399 64.5777 80.958 66.0398 80.958C67.502 80.958 68.6915 82.1399 68.6915 83.5926C68.6915 85.0455 67.502 86.2274 66.0398 86.2274ZM66.0398 82.8016C65.6008 82.8016 65.2437 83.1564 65.2437 83.5926C65.2437 84.0288 65.6008 84.3839 66.0398 84.3839C66.4788 84.3839 66.836 84.0288 66.836 83.5926C66.836 83.1564 66.4788 82.8016 66.0398 82.8016Z" fill="#6583FE"/>
<path fill-rule="evenodd" clip-rule="evenodd" d="M55.1528 42.3119C56.2968 35.0328 62.8774 33.3141 62.8694 24.3322C62.8575 15.0216 55.6032 9.60394 48.5443 9.703C41.4854 9.60394 34.2312 15.0216 34.2193 24.3322C34.2073 33.3141 40.7919 35.0328 41.9358 42.3119C42.0514 42.2961 42.167 42.2921 42.2865 42.2921H54.802C54.9217 42.2921 55.0372 42.2961 55.1528 42.3119Z" fill="#FFDA8F"/>
<path fill-rule="evenodd" clip-rule="evenodd" d="M42.2865 48.5695H54.8019H54.9016C56.5956 48.518 57.9627 47.124 57.9627 45.4329C57.9627 43.8211 56.7271 42.4865 55.1528 42.3123C55.0372 42.2965 54.9216 42.2925 54.8021 42.2925H42.2866C42.1671 42.2925 42.0515 42.2964 41.9359 42.3123C40.3616 42.4865 39.126 43.8212 39.126 45.4329C39.126 47.124 40.4931 48.5179 42.1871 48.5695H42.2865Z" fill="#F3EFF0"/>
<path fill-rule="evenodd" clip-rule="evenodd" d="M51.6573 55.0164C53.443 55.0164 54.9018 53.5669 54.9018 51.7928V48.5693C54.8699 48.5693 54.834 48.5693 54.8021 48.5693H42.2867C42.2509 48.5693 42.2189 48.5693 42.187 48.5693V51.7928C42.187 53.567 43.6458 55.0164 45.4275 55.0164H51.6573Z" fill="#CDC0C4"/>
<path fill-rule="evenodd" clip-rule="evenodd" d="M50.8762 64.7509C50.2705 63.6579 49.1025 62.9173 47.7712 62.9173H40.6366C39.5843 62.9173 39.4368 62.7431 38.7791 62.1292C33.5179 57.2065 29.2251 57.4481 23.9639 59.5114C22.8319 59.9549 22.6844 59.947 21.6482 59.9945H18.918V73.2377H23.0074C23.5615 73.2377 23.5096 73.2654 24.3267 73.4832L37.9063 77.091C42.6813 78.378 44.5945 79.5582 49.1305 76.5524L65.867 64.7111C67.3976 63.6259 67.9675 61.6261 66.979 60.034C65.9904 58.4459 63.9457 58.0776 62.2757 58.9331L50.8762 64.7509Z" fill="#FFDCD5"/>
<path fill-rule="evenodd" clip-rule="evenodd" d="M18.918 73.2379V59.9948V59.7769C18.918 58.5888 17.9414 57.6187 16.7496 57.6187H11.5004C10.3086 57.6187 9.33203 58.589 9.33203 59.7769V73.4557C9.33203 74.6398 10.3086 75.6101 11.5004 75.6101H16.7496C17.9414 75.6101 18.918 74.6398 18.918 73.4557V73.2379Z" fill="#FF8389"/>
<path d="M61.6332 57.6905L51.2795 62.9744C50.3829 62.0769 49.1414 61.5202 47.7712 61.5202H40.6365C40.3192 61.5202 40.203 61.5008 40.1681 61.4925C40.1034 61.4489 39.9422 61.2982 39.8114 61.1758L39.7432 61.1119C33.9359 55.6786 29.0288 56.0232 23.4479 58.2117C22.5745 58.554 22.5579 58.5547 21.6923 58.5939L20.1206 58.5959C19.63 57.2143 18.3045 56.2212 16.7497 56.2212H11.5002C9.52925 56.2212 7.92578 57.8161 7.92578 59.7766V73.4553C7.92578 75.4136 9.52925 77.0068 11.5002 77.0068H16.7496C18.3045 77.0068 19.63 76.0148 20.1206 74.6346H23.0074C23.3342 74.6627 23.6528 74.7288 23.9634 74.8327L37.5383 78.4392C38.1327 78.5993 38.6784 78.7569 39.2063 78.9094C40.9594 79.4155 42.4331 79.841 43.9696 79.8408C45.7055 79.8408 47.5216 79.2978 49.9107 77.7144C49.9227 77.7064 49.9345 77.6985 49.9462 77.6902L66.6837 65.8483C68.8838 64.2887 69.5251 61.4736 68.1749 59.2992C66.8403 57.1553 64.0271 56.4641 61.6332 57.6905ZM17.5116 73.4554C17.5116 73.8659 17.1626 74.2127 16.7496 74.2127H11.5002C11.087 74.2127 10.7381 73.8659 10.7381 73.4554V59.7767C10.7381 59.3641 11.0872 59.0156 11.5002 59.0156H16.7496C17.1627 59.0156 17.5116 59.3641 17.5116 59.7767V73.4554ZM65.0511 63.5731L48.3323 75.4018C44.9293 77.6521 43.4811 77.2338 39.9907 76.2262C39.451 76.0704 38.8929 75.9093 38.2694 75.7413L24.6908 72.1338C24.1445 71.9654 23.5832 71.8676 23.0071 71.8405H20.3239V61.3916L21.8203 61.3853C22.8905 61.3369 23.2224 61.3039 24.4801 60.811C29.3173 58.914 33.0502 58.6881 37.8163 63.1474L37.8836 63.2103C38.7043 63.978 39.2128 64.3143 40.6365 64.3143H47.7712C48.9475 64.3143 49.9044 65.2651 49.9044 66.4338C49.9044 67.6004 48.9475 68.5495 47.7712 68.5495H36.2044C35.4277 68.5495 34.7982 69.175 34.7982 69.9466C34.7982 70.7182 35.4277 71.3437 36.2044 71.3437H47.7712C50.4982 71.3437 52.7168 69.1412 52.7168 66.4338C52.7168 66.0915 52.681 65.7573 52.6137 65.4346L62.9199 60.1749C63.8593 59.6939 65.1445 59.7432 65.782 60.7677C66.3442 61.6732 66.0295 62.8796 65.0511 63.5731Z" fill="black"/>
<path d="M40.2935 41.3508C38.7713 42.0875 37.7196 43.6403 37.7196 45.4327C37.7196 47.4089 39.0003 49.0927 40.7807 49.7119V51.7928C40.7807 54.3408 42.8652 56.4137 45.4273 56.4137H51.6571C54.2214 56.4137 56.3077 54.3408 56.3077 51.7928V49.7119C58.0881 49.0927 59.3688 47.4088 59.3688 45.4327C59.3688 43.6402 58.3172 42.0874 56.7948 41.3507C57.4106 39.0778 58.6589 37.3855 59.9717 35.6103C61.9912 32.8795 64.2802 29.7843 64.2753 24.3323C64.2753 23.8455 64.255 23.3459 64.2151 22.8472C64.1535 22.078 63.4776 21.5059 62.7018 21.5652C61.9277 21.6264 61.35 22.2996 61.4116 23.0688C61.4456 23.494 61.4629 23.919 61.4629 24.3334C61.467 28.869 59.6398 31.3398 57.7052 33.9557C56.2373 35.9406 54.7266 37.9867 54.0068 40.8948H43.0811C42.3612 37.987 40.8502 35.941 39.382 33.9562C37.4468 31.3404 35.619 28.8696 35.6251 24.3338C35.6313 19.4973 37.7168 16.4429 39.4654 14.7323C41.873 12.3767 45.1709 11.0528 48.5241 11.0998C48.5376 11.0999 48.551 11.0999 48.5645 11.0998C51.2965 11.0585 54.0366 11.9433 56.2736 13.5865C56.8978 14.0452 57.7786 13.914 58.2402 13.2937C58.7019 12.6732 58.57 11.7983 57.9455 11.3396C55.2219 9.33924 51.8839 8.26303 48.5439 8.30592C44.4535 8.25632 40.4275 9.87015 37.4924 12.7418C34.437 15.7311 32.8189 19.7385 32.813 24.3306C32.8057 29.7848 35.0958 32.8804 37.1162 35.6116C38.4291 37.3863 39.6777 39.0784 40.2935 41.3508ZM53.4955 51.793C53.4955 52.8002 52.6709 53.6196 51.6572 53.6196H45.4274C44.416 53.6196 43.5932 52.8002 43.5932 51.793V49.9665H53.4955V51.793ZM42.2866 43.6893H54.802C55.7694 43.6893 56.5566 44.4715 56.5566 45.4327C56.5566 46.3918 55.7696 47.1721 54.802 47.1721H42.2866C41.3191 47.1721 40.5319 46.3918 40.5319 45.4327C40.5319 44.4715 41.3191 43.6893 42.2866 43.6893Z" fill="black"/>
<path d="M49.9505 18.5109C49.9505 17.7393 49.321 17.1138 48.5444 17.1138C47.7677 17.1138 47.1382 17.7393 47.1382 18.5109V27.1761C47.1382 27.9477 47.7677 28.5732 48.5444 28.5732C49.321 28.5732 49.9505 27.9477 49.9505 27.1761V18.5109Z" fill="black"/>
<path d="M48.5444 32.0996C47.7678 32.0996 47.1382 32.7251 47.1382 33.4968V33.5048C47.1382 34.2765 47.7678 34.8981 48.5444 34.8981C49.3211 34.8981 49.9507 34.2686 49.9507 33.497C49.9507 32.7253 49.3211 32.0996 48.5444 32.0996Z" fill="black"/>
<path d="M76.6686 24.3213H70.957C70.1803 24.3213 69.5508 24.9468 69.5508 25.7184C69.5508 26.4901 70.1803 27.1156 70.957 27.1156H76.6686C77.4452 27.1156 78.0748 26.4901 78.0748 25.7184C78.0748 24.9468 77.4452 24.3213 76.6686 24.3213Z" fill="black"/>
<path d="M68.5943 15.322C68.8637 15.322 69.1361 15.2452 69.3765 15.0848L74.1156 11.9245C74.7605 11.4944 74.9323 10.6265 74.4995 9.98581C74.0668 9.34523 73.1933 9.17436 72.5483 9.6044L67.8092 12.7647C67.1643 13.1947 66.9925 14.0628 67.4253 14.7034C67.6968 15.105 68.1413 15.322 68.5943 15.322Z" fill="black"/>
<path d="M74.1161 39.5128L69.377 36.3524C68.7321 35.9224 67.8584 36.0933 67.4258 36.7339C66.9929 37.3745 67.1649 38.2425 67.8096 38.6726L72.5488 41.833C72.7892 41.9933 73.0616 42.0702 73.3311 42.0702C73.784 42.0702 74.2286 41.8532 74.5 41.4515C74.9328 40.8108 74.761 39.9427 74.1161 39.5128Z" fill="black"/>
<path d="M20.4203 27.1156H26.1281C26.9047 27.1156 27.5342 26.4901 27.5342 25.7184C27.5342 24.9468 26.9047 24.3213 26.1281 24.3213H20.4203C19.6437 24.3213 19.0142 24.9468 19.0142 25.7184C19.0142 26.4901 19.6437 27.1156 20.4203 27.1156Z" fill="black"/>
<path d="M22.9728 11.9245L27.7119 15.0848C27.9523 15.2452 28.2247 15.322 28.4941 15.322C28.9471 15.322 29.3917 15.105 29.6631 14.7034C30.0959 14.0628 29.924 13.1947 29.2792 12.7647L24.5401 9.6044C23.8952 9.17436 23.0217 9.34523 22.5889 9.98581C22.1561 10.6264 22.3279 11.4944 22.9728 11.9245Z" fill="black"/>
<path d="M27.7124 36.3524L22.9733 39.5128C22.3284 39.9429 22.1565 40.8109 22.5894 41.4515C22.8608 41.8532 23.3053 42.0702 23.7583 42.0702C24.0278 42.0702 24.3001 41.9933 24.5406 41.833L29.2797 38.6726C29.9246 38.2425 30.0964 37.3745 29.6636 36.7339C29.2308 36.0933 28.3571 35.9224 27.7124 36.3524Z" fill="black"/>
<path d="M60.0776 17.9781C60.3518 18.2504 60.7102 18.3864 61.069 18.3864C61.429 18.3864 61.7893 18.2494 62.0643 17.9761C62.6135 17.4305 62.6115 16.5438 62.0623 15.9981C61.5132 15.4525 60.6228 15.4525 60.0735 15.9981C59.5243 16.5437 59.5243 17.4284 60.0735 17.9742L60.0776 17.9781Z" fill="black"/>
</g>
<defs>
<linearGradient id="paint0_linear" x1="12.7233" y1="75.0228" x2="72.8334" y2="2.9222" gradientUnits="userSpaceOnUse">
<stop stop-color="#D2DEFF" stop-opacity="0"/>
<stop offset="0.6852" stop-color="#D2DEFF"/>
</linearGradient>
<clipPath id="clip0">
<rect width="95" height="87" fill="white"/>
</clipPath>
</defs>
</svg>
