<svg width="88" height="88" viewBox="0 0 88 88" fill="none" xmlns="http://www.w3.org/2000/svg">
<circle cx="44" cy="44" r="43" stroke="white" stroke-width="2"/>
<g clip-path="url(#clip0)">
<path d="M60.8707 49.599C58.4829 49.599 56.1385 49.2256 53.9168 48.4914C52.8091 48.1137 51.548 48.4068 50.8254 49.1431L46.4403 52.4534C41.3547 49.7388 38.2221 46.6072 35.5445 41.5599L38.7575 37.2889C39.5922 36.4553 39.8916 35.2376 39.5329 34.095C38.7955 31.8616 38.421 29.5183 38.421 27.1295C38.4211 25.4039 37.0172 24 35.2916 24H28.1293C26.4039 24 25 25.4039 25 27.1293C25 46.9087 41.0914 63 60.8707 63C62.5962 63 64.0001 61.5961 64.0001 59.8706V52.7284C64 51.0029 62.5961 49.599 60.8707 49.599ZM61.8334 59.8707C61.8334 60.4017 61.4017 60.8334 60.8707 60.8334C42.2857 60.8334 27.1667 45.7143 27.1667 27.1294C27.1667 26.5984 27.5984 26.1667 28.1294 26.1667H35.2917C35.8228 26.1667 36.2544 26.5984 36.2544 27.1294C36.2544 29.75 36.666 32.3218 37.4711 34.7583C37.5832 35.118 37.4922 35.4904 37.1283 35.8692L33.4043 40.8012C33.1547 41.1323 33.1155 41.5756 33.3027 41.9448C36.3422 47.919 40.0355 51.6123 46.052 54.6951C46.418 54.8866 46.8666 54.8465 47.1988 54.5957L52.2441 50.7734C52.4991 50.5185 52.881 50.4275 53.2259 50.5449C55.6793 51.3552 58.2512 51.7658 60.8707 51.7658C61.4017 51.7658 61.8334 52.1974 61.8334 52.7285V59.8707Z" fill="white"/>
</g>
<defs>
<clipPath id="clip0">
<rect width="39" height="39" fill="white" transform="translate(25 24)"/>
</clipPath>
</defs>
</svg>
