<svg width="88" height="88" viewBox="0 0 88 88" fill="none" xmlns="http://www.w3.org/2000/svg">
<circle cx="44" cy="44" r="43" stroke="white" stroke-width="2"/>
<g clip-path="url(#clip0)">
<path d="M66.9531 54.0542V33.0077L69.0096 32.2398C69.6051 32.0172 70 31.4483 70 30.8125C70 30.1767 69.6051 29.6078 69.0096 29.3853L44.533 20.2447C44.1893 20.1163 43.8108 20.1163 43.4671 20.2447L18.9905 29.3853C18.3949 29.6078 18 30.1767 18 30.8125C18 31.4483 18.3949 32.0172 18.9904 32.2397L29.1333 36.0274C26.732 42.8028 27.3379 46.3668 27.2422 47.5703C27.2422 48.0758 27.4929 48.5485 27.9115 48.8318C28.3301 49.1153 28.8619 49.1725 29.3313 48.9848C29.3668 48.9707 32.9079 47.5703 36.3828 47.5703C39.5974 47.5703 43.0161 50.2578 43.0483 50.2834C43.6047 50.7284 44.3953 50.7284 44.9516 50.2834C45.895 49.5287 48.9313 47.5703 51.6172 47.5703C55.073 47.5703 58.6343 48.9712 58.6686 48.9848C59.1379 49.1725 59.6699 49.1152 60.0884 48.8318C60.5071 48.5485 60.7578 48.0758 60.7578 47.5703C60.6693 46.4582 61.2554 42.7672 58.8666 36.0274L63.9062 34.1455V54.0542C63.123 54.4774 62.4398 55.2366 61.9126 56.291C61.2334 57.6494 60.8594 59.4216 60.8594 61.2812V64.3281C60.8594 65.1695 61.5415 65.8516 62.3828 65.8516H68.4766C69.3179 65.8516 70 65.1695 70 64.3281V61.2812C70 59.4216 69.6259 57.6494 68.9468 56.291C68.4196 55.2366 67.7364 54.4774 66.9531 54.0542ZM44 23.2981L64.122 30.8125C62.0461 31.5877 46.0089 37.5768 44 38.3269C41.9911 37.5768 25.9539 31.5877 23.878 30.8125L44 23.2981ZM57.6984 45.4601C56.1361 45.0159 53.8915 44.5234 51.6172 44.5234C48.5009 44.5234 45.4856 46.2314 44 47.2209C42.5144 46.2314 39.499 44.5234 36.3828 44.5234C34.1086 44.5234 31.8639 45.0159 30.3016 45.4601C30.3892 42.3629 30.9393 40.0561 31.9878 37.0934L43.4671 41.3803C43.8107 41.5087 44.1893 41.5087 44.533 41.3803L56.0123 37.0934C57.0607 40.0561 57.6107 42.363 57.6984 45.4601ZM66.9531 62.8047H63.9062V61.2812C63.9062 59.9057 64.173 58.5834 64.6378 57.6536C65.0272 56.8749 65.3769 56.7109 65.4297 56.7109C65.4825 56.7109 65.8322 56.8749 66.2216 57.6536C66.6864 58.5834 66.9531 59.9057 66.9531 61.2812V62.8047Z" fill="white"/>
</g>
<defs>
<clipPath id="clip0">
<rect width="52" height="52" fill="white" transform="translate(18 17)"/>
</clipPath>
</defs>
</svg>
