<svg width="88" height="88" viewBox="0 0 88 88" fill="none" xmlns="http://www.w3.org/2000/svg">
<circle cx="44" cy="44" r="43" stroke="white" stroke-width="2"/>
<path d="M43.5 20C35.9398 20 29.7891 26.1507 29.7891 33.7109C29.7891 36.2653 30.4966 38.7581 31.8357 40.9208L42.7195 58.4599C42.928 58.7959 43.2953 59 43.6904 59C43.6934 59 43.6964 59 43.6994 59C44.0979 58.9969 44.4659 58.7864 44.6706 58.4446L55.277 40.7355C56.5422 38.6185 57.2109 36.1895 57.2109 33.7109C57.2109 26.1507 51.0602 20 43.5 20ZM53.316 39.5623L43.6731 55.6626L33.778 39.7168C32.6633 37.9167 32.059 35.8399 32.059 33.7109C32.059 27.4108 37.1998 22.2699 43.5 22.2699C49.8002 22.2699 54.9334 27.4108 54.9334 33.7109C54.9334 35.7768 54.3689 37.8005 53.316 39.5623Z" fill="white"/>
<path d="M43.5 26.8555C39.7199 26.8555 36.6445 29.9308 36.6445 33.7109C36.6445 37.4669 39.6698 40.5664 43.5 40.5664C47.3774 40.5664 50.3555 37.4256 50.3555 33.7109C50.3555 29.9308 47.2801 26.8555 43.5 26.8555ZM43.5 38.2965C40.9668 38.2965 38.9145 36.2373 38.9145 33.7109C38.9145 31.1909 40.9799 29.1254 43.5 29.1254C46.0201 29.1254 48.0779 31.1909 48.0779 33.7109C48.0779 36.2005 46.0734 38.2965 43.5 38.2965Z" fill="white"/>
</svg>
