<svg width="88" height="88" viewBox="0 0 88 88" fill="none" xmlns="http://www.w3.org/2000/svg">
<circle cx="44" cy="44" r="43" stroke="white" stroke-width="2"/>
<path d="M59.5723 28.6465H27.4277C25.54 28.6465 24 30.1849 24 32.0742V54.9258C24 56.8088 25.5332 58.3535 27.4277 58.3535H59.5723C61.4552 58.3535 63 56.8203 63 54.9258V32.0742C63 30.1913 61.4668 28.6465 59.5723 28.6465ZM59.0989 30.9316L43.5727 46.458L27.9121 30.9316H59.0989ZM26.2852 54.4526V32.5365L37.2904 43.4474L26.2852 54.4526ZM27.901 56.0684L38.9132 45.0562L42.7718 48.8817C43.2185 49.3246 43.9393 49.3231 44.3841 48.8782L48.1465 45.1158L59.099 56.0684H27.901ZM60.7148 54.4525L49.7623 43.5L60.7148 32.5474V54.4525Z" fill="white"/>
</svg>
