<svg width="88" height="88" viewBox="0 0 88 88" fill="none" xmlns="http://www.w3.org/2000/svg">
<circle cx="44" cy="44" r="43" stroke="white" stroke-width="2"/>
<path d="M58.2886 45.2114C56.1647 43.0875 53.6367 41.5153 50.8786 40.5635C53.8327 38.5289 55.7734 35.1238 55.7734 31.2734C55.7734 25.0573 50.7162 20 44.5 20C38.2838 20 33.2266 25.0573 33.2266 31.2734C33.2266 35.1238 35.1673 38.5289 38.1215 40.5635C35.3633 41.5153 32.8353 43.0875 30.7114 45.2114C27.0284 48.8945 25 53.7914 25 59H28.0469C28.0469 49.9277 35.4277 42.5469 44.5 42.5469C53.5723 42.5469 60.9531 49.9277 60.9531 59H64C64 53.7914 61.9716 48.8945 58.2886 45.2114ZM44.5 39.5C39.9639 39.5 36.2734 35.8096 36.2734 31.2734C36.2734 26.7373 39.9639 23.0469 44.5 23.0469C49.0361 23.0469 52.7266 26.7373 52.7266 31.2734C52.7266 35.8096 49.0361 39.5 44.5 39.5Z" fill="white"/>
</svg>
