<svg width="88" height="88" viewBox="0 0 88 88" fill="none" xmlns="http://www.w3.org/2000/svg">
<circle cx="44" cy="44" r="43" stroke="white" stroke-width="2"/>
<g clip-path="url(#clip0)">
<path d="M57.2886 29.7115C53.6056 26.0283 48.7087 24 43.5 24C38.2914 24 33.3944 26.0283 29.7115 29.7114C26.0283 33.3944 24 38.2914 24 43.5C24 48.7087 26.0283 53.6056 29.7115 57.2886C33.3944 60.9717 38.2914 63 43.5 63C48.7088 63 53.6056 60.9717 57.2887 57.2885C60.9717 53.6056 63.0001 48.7086 63.0001 43.5C63.0001 38.2913 60.9717 33.3944 57.2886 29.7115ZM31.329 31.329C33.0437 29.6143 35.0567 28.3064 37.2507 27.4527C36.6663 28.1823 36.1195 29.0209 35.6184 29.964C35.0363 31.0594 34.5341 32.2624 34.1159 33.5473C32.6669 33.3069 31.3244 33.0112 30.125 32.6641C30.5009 32.2021 30.9019 31.756 31.329 31.329ZM28.7401 34.6325C30.143 35.0817 31.7473 35.4605 33.4979 35.7605C33.0104 37.8298 32.7234 40.0565 32.655 42.3563H26.326C26.5058 39.5964 27.3347 36.9623 28.7401 34.6325ZM28.6156 52.1561C27.286 49.8786 26.5003 47.3206 26.3259 44.6438H32.6593C32.7341 46.8778 33.0153 49.0412 33.4864 51.0564C31.6999 51.346 30.0552 51.7152 28.6156 52.1561ZM31.329 55.6711C30.843 55.1851 30.3904 54.6747 29.9707 54.1435C31.2141 53.7987 32.6041 53.5068 34.1003 53.2726C34.5216 54.5754 35.0292 55.7943 35.6183 56.9031C36.1644 57.9309 36.7649 58.834 37.4091 59.6076C35.1536 58.7558 33.0849 57.4269 31.329 55.6711ZM42.3562 60.419C40.6189 59.9323 38.9754 58.3458 37.6385 55.8297C37.1708 54.9498 36.7601 53.9898 36.4083 52.9666C38.292 52.7593 40.2965 52.6367 42.3562 52.6079V60.419ZM42.3562 50.3203C40.072 50.3514 37.8456 50.4948 35.7605 50.7397C35.3006 48.8384 35.0238 46.7805 34.9479 44.6438H42.3563V50.3203H42.3562ZM42.3562 42.3562H34.9436C35.013 40.1599 35.2941 38.0445 35.7683 36.0948C37.8401 36.3538 40.0619 36.5113 42.3562 36.5564V42.3562ZM42.3562 34.2686C40.2885 34.2269 38.2884 34.0921 36.418 33.8721C36.7677 32.8596 37.1752 31.9093 37.6385 31.0374C38.9753 28.5213 40.6189 26.9348 42.3562 26.4481V34.2686ZM58.332 34.754C59.6935 37.0538 60.4974 39.6441 60.6742 42.3562H54.3453C54.2775 40.083 53.9961 37.8812 53.5188 35.8323C55.2809 35.5478 56.9051 35.1857 58.332 34.754ZM55.671 31.329C56.1303 31.7882 56.5593 32.2696 56.9594 32.7694C55.7351 33.1037 54.3717 33.3874 52.9068 33.6158C52.4842 32.305 51.9742 31.0789 51.3818 29.964C50.8807 29.0209 50.3338 28.1823 49.7494 27.4527C51.9433 28.3064 53.9564 29.6143 55.671 31.329ZM44.6438 44.6438H52.0523C51.9758 46.7971 51.6953 48.8706 51.2288 50.7842C49.1574 50.5267 46.9366 50.3706 44.6438 50.3267V44.6438ZM44.6438 42.3562V36.564C46.9294 36.534 49.1576 36.3918 51.2446 36.1478C51.7112 38.0828 51.9877 40.1798 52.0565 42.3562H44.6438ZM44.6437 26.4481H44.6438C46.3811 26.9348 48.0246 28.5213 49.3616 31.0374C49.8321 31.923 50.2452 32.8897 50.5986 33.9203C48.7123 34.1269 46.7056 34.2486 44.6437 34.2764V26.4481ZM44.6438 60.419V52.6146C46.7096 52.6551 48.7082 52.7887 50.5779 53.0073C50.2291 54.0152 49.8229 54.9614 49.3616 55.8297C48.0247 58.3458 46.3812 59.9323 44.6438 60.419ZM55.671 55.6711C53.9152 57.4269 51.8464 58.7558 49.5909 59.6075C50.2351 58.8339 50.8356 57.9309 51.3817 56.9031C51.9621 55.8107 52.4632 54.6113 52.8808 53.3302C54.3635 53.5749 55.7352 53.8776 56.9571 54.2335C56.5578 54.7321 56.1294 55.2126 55.671 55.6711ZM58.3236 52.2605C56.9041 51.8042 55.2767 51.4202 53.4999 51.1172C53.9795 49.0849 54.2653 46.9003 54.3409 44.6438H60.6743C60.497 47.3615 59.6903 49.9571 58.3236 52.2605Z" fill="white"/>
</g>
<defs>
<clipPath id="clip0">
<rect width="39" height="39" fill="white" transform="translate(24 24)"/>
</clipPath>
</defs>
</svg>
