<svg width="95" height="87" viewBox="0 0 95 87" fill="none" xmlns="http://www.w3.org/2000/svg">
<g clip-path="url(#clip0)">
<path d="M6.73134 51.4058C9.91346 62.2814 19.0858 84.4664 34.5853 82.4751C50.1307 80.4777 44.0599 60.432 58.2907 57.6845C64.5552 56.475 68.8016 67.3172 75.08 66.98C83.1663 66.5455 87.2821 58.5411 89.5417 51.812C94.333 37.544 87.1579 13.3499 70.3645 9.15962C55.7098 5.50307 53.9956 23.4084 41.2532 18.2076C34.0911 15.2845 34.8067 6.55505 26.0839 4.79364C-0.304619 -0.534936 2.49705 36.9345 6.73134 51.4058V51.4058Z" fill="url(#paint0_linear)"/>
<path opacity="0.1" d="M81.3943 18.2687H13.6057C12.1981 18.2687 11.0569 19.4099 11.0569 20.8175V74.2182C11.0569 75.6258 12.1981 76.767 13.6057 76.767H33.4322V80.8363C33.4322 81.7748 34.1929 82.5355 35.1314 82.5355H59.8686C60.8071 82.5355 61.5679 81.7748 61.5679 80.8363V76.767H81.3943C82.802 76.767 83.9432 75.6258 83.9432 74.2182V20.8175C83.9432 19.4099 82.8021 18.2687 81.3943 18.2687V18.2687Z" fill="#2626BC"/>
<path d="M81.3943 72.6889H13.6057C12.1981 72.6889 11.0569 71.5477 11.0569 70.14V16.7394C11.0569 15.3317 12.1981 14.1906 13.6057 14.1906H81.3943C82.802 14.1906 83.9432 15.3317 83.9432 16.7394V70.14C83.9432 71.5478 82.8021 72.6889 81.3943 72.6889Z" fill="white"/>
<path d="M76.8609 72.6889H18.1393V37.6648C18.1393 36.7263 18.9 35.9656 19.8385 35.9656H75.1617C76.1001 35.9656 76.8609 36.7263 76.8609 37.6648V72.6889Z" fill="#FF6A79"/>
<path d="M18.1393 62.7386H76.8607V72.6889H18.1393V62.7386Z" fill="#9FB0FE"/>
<path d="M64.3113 57.3454C67.4693 57.3454 70.0293 54.7854 70.0293 51.6274C70.0293 48.4694 67.4693 45.9094 64.3113 45.9094C61.1533 45.9094 58.5933 48.4694 58.5933 51.6274C58.5933 54.7854 61.1533 57.3454 64.3113 57.3454Z" fill="#FFDA8F"/>
<path d="M67.1349 51.8206C67.1349 50.2641 65.8673 48.9982 64.3108 48.9982C62.7543 48.9982 61.4884 50.2641 61.4884 51.8206C61.4884 52.5887 61.7977 53.2854 62.2955 53.7951C61.7977 54.3032 61.4884 54.9999 61.4884 55.7679V56.6005C62.0101 56.8962 62.581 57.1137 63.1876 57.2343V55.7679C63.1876 55.1477 63.6923 54.6447 64.3108 54.6447C64.931 54.6447 65.4357 55.1477 65.4357 55.7679V57.2343C66.0423 57.1137 66.6132 56.8962 67.1349 56.6005V55.7679C67.1349 54.9999 66.8256 54.3032 66.3261 53.7951C66.8256 53.2854 67.1349 52.5887 67.1349 51.8206ZM64.3108 52.9455C63.6923 52.9455 63.1876 52.4408 63.1876 51.8206C63.1876 51.2021 63.6923 50.6974 64.3108 50.6974C64.931 50.6974 65.4357 51.2021 65.4357 51.8206C65.4357 52.4408 64.931 52.9455 64.3108 52.9455Z" fill="#FFAF5D"/>
<path d="M30.6889 57.3454C33.8468 57.3454 36.4069 54.7854 36.4069 51.6274C36.4069 48.4694 33.8468 45.9094 30.6889 45.9094C27.5309 45.9094 24.9708 48.4694 24.9708 51.6274C24.9708 54.7854 27.5309 57.3454 30.6889 57.3454Z" fill="#FFDA8F"/>
<path d="M33.5125 51.8206C33.5125 50.2641 32.2449 48.9982 30.6884 48.9982C29.1319 48.9982 27.866 50.2641 27.866 51.8206C27.866 52.5887 28.1752 53.2854 28.6731 53.7951C28.1752 54.3032 27.866 54.9999 27.866 55.7679V56.6005C28.3876 56.8962 28.9586 57.1137 29.5652 57.2343V55.7679C29.5652 55.1477 30.0699 54.6447 30.6884 54.6447C31.3086 54.6447 31.8133 55.1477 31.8133 55.7679V57.2343C32.4199 57.1137 32.9908 56.8962 33.5125 56.6005V55.7679C33.5125 54.9999 33.2032 54.3032 32.7036 53.7951C33.2032 53.2854 33.5125 52.5887 33.5125 51.8206V51.8206ZM30.6884 52.9455C30.0699 52.9455 29.5652 52.4408 29.5652 51.8206C29.5652 51.2021 30.0699 50.6974 30.6884 50.6974C31.3086 50.6974 31.8133 51.2021 31.8133 51.8206C31.8133 52.4408 31.3086 52.9455 30.6884 52.9455Z" fill="#FFAF5D"/>
<path d="M76.8609 41.8301H18.1393V37.6648C18.1393 36.7263 18.9 35.9656 19.8385 35.9656H75.1617C76.1001 35.9656 76.8609 36.7263 76.8609 37.6648V41.8301Z" fill="#FFAF5D"/>
<path d="M83.9432 25.9683V16.7394C83.9432 15.3317 82.802 14.1906 81.3943 14.1906H13.6057C12.1981 14.1906 11.0569 15.3317 11.0569 16.7394V25.9683H83.9432Z" fill="#6583FE"/>
<path d="M18.5492 22.3132C19.5722 22.3132 20.4015 21.4838 20.4015 20.4608C20.4015 19.4378 19.5722 18.6085 18.5492 18.6085C17.5262 18.6085 16.6969 19.4378 16.6969 20.4608C16.6969 21.4838 17.5262 22.3132 18.5492 22.3132Z" fill="#FF5BA8"/>
<path d="M24.4627 22.3132C25.4857 22.3132 26.315 21.4838 26.315 20.4608C26.315 19.4378 25.4857 18.6085 24.4627 18.6085C23.4397 18.6085 22.6104 19.4378 22.6104 20.4608C22.6104 21.4838 23.4397 22.3132 24.4627 22.3132Z" fill="white"/>
<path d="M30.376 22.3132C31.399 22.3132 32.2283 21.4838 32.2283 20.4608C32.2283 19.4378 31.399 18.6085 30.376 18.6085C29.353 18.6085 28.5237 19.4378 28.5237 20.4608C28.5237 21.4838 29.353 22.3132 30.376 22.3132Z" fill="#02FFB3"/>
<path d="M77.4534 22.5418H54.3171V18.3794H77.4535C77.9227 18.3794 78.3031 18.7598 78.3031 19.229V21.6922C78.303 22.1615 77.9227 22.5418 77.4534 22.5418V22.5418Z" fill="#FFDBED"/>
<path d="M54.431 18.4324C53.5328 17.5342 52.0713 17.5342 51.173 18.4324C50.2748 19.3306 50.2748 20.7921 51.173 21.6904C51.859 22.3763 52.8728 22.5366 53.7139 22.175L54.4527 22.9138C54.7844 23.2455 55.3225 23.2455 55.6542 22.9138C55.9859 22.5821 55.9859 22.044 55.6542 21.7123L54.9154 20.9735C55.2772 20.1322 55.1169 19.1184 54.431 18.4324V18.4324ZM52.3746 19.634C52.6102 19.3983 52.9938 19.3983 53.2294 19.634C53.4651 19.8696 53.4651 20.2532 53.2294 20.4888C52.9938 20.7245 52.6102 20.7245 52.3746 20.4888C52.1389 20.2532 52.1389 19.8696 52.3746 19.634Z" fill="white"/>
<path d="M59.8687 77.4576H35.1315C34.7453 77.4576 34.4323 77.1446 34.4323 76.7584V33.238C34.4323 32.8518 34.7453 32.5388 35.1315 32.5388H59.8687C60.2549 32.5388 60.5679 32.8518 60.5679 33.238V76.7582C60.5679 77.1446 60.2548 77.4576 59.8687 77.4576Z" fill="#9FB0FE" stroke="black" stroke-width="2"/>
<path d="M34.4323 76.7583V65.6838H60.5679V76.7583C60.5679 77.1445 60.2549 77.4575 59.8687 77.4575H35.1315C34.7453 77.4575 34.4323 77.1445 34.4323 76.7583Z" fill="#8399FE" stroke="black" stroke-width="2"/>
<path d="M60.5679 35.8935H34.4323V33.238C34.4323 32.8518 34.7453 32.5388 35.1315 32.5388H59.8687C60.2549 32.5388 60.5679 32.8518 60.5679 33.238V35.8935Z" fill="#6583FE" stroke="black" stroke-width="2"/>
<mask id="path-20-inside-1" fill="white">
<path d="M81.3945 13.3409H13.6057C11.7318 13.3409 10.2073 14.8655 10.2073 16.7394V70.14C10.2073 72.0139 11.7318 73.5385 13.6057 73.5385H32.5826V76.7583C32.5826 78.1638 33.726 79.3072 35.1314 79.3072H59.8687C61.2741 79.3072 62.4175 78.1638 62.4175 76.7583V73.5385H81.3945C83.2684 73.5385 84.793 72.0139 84.793 70.14V16.7394C84.793 14.8655 83.2684 13.3409 81.3945 13.3409ZM60.7183 76.7583C60.7183 77.2268 60.3371 77.6079 59.8687 77.6079H35.1314C34.6629 77.6079 34.2818 77.2268 34.2818 76.7583V33.2379C34.2818 32.7695 34.6629 32.3883 35.1314 32.3883H59.8687C60.3371 32.3883 60.7183 32.7695 60.7183 33.2379V76.7583ZM83.0938 70.14C83.0938 71.077 82.3315 71.8393 81.3945 71.8393H62.4175V33.2379C62.4175 31.8325 61.2741 30.6891 59.8687 30.6891H35.1314C33.726 30.6891 32.5826 31.8325 32.5826 33.2379V71.8393H13.6057C12.6688 71.8393 11.9065 71.077 11.9065 70.14V16.7394C11.9065 15.8024 12.6688 15.0402 13.6057 15.0402H81.3945C82.3315 15.0402 83.0938 15.8024 83.0938 16.7394V70.14Z"/>
</mask>
<path d="M81.3945 13.3409H13.6057C11.7318 13.3409 10.2073 14.8655 10.2073 16.7394V70.14C10.2073 72.0139 11.7318 73.5385 13.6057 73.5385H32.5826V76.7583C32.5826 78.1638 33.726 79.3072 35.1314 79.3072H59.8687C61.2741 79.3072 62.4175 78.1638 62.4175 76.7583V73.5385H81.3945C83.2684 73.5385 84.793 72.0139 84.793 70.14V16.7394C84.793 14.8655 83.2684 13.3409 81.3945 13.3409ZM60.7183 76.7583C60.7183 77.2268 60.3371 77.6079 59.8687 77.6079H35.1314C34.6629 77.6079 34.2818 77.2268 34.2818 76.7583V33.2379C34.2818 32.7695 34.6629 32.3883 35.1314 32.3883H59.8687C60.3371 32.3883 60.7183 32.7695 60.7183 33.2379V76.7583ZM83.0938 70.14C83.0938 71.077 82.3315 71.8393 81.3945 71.8393H62.4175V33.2379C62.4175 31.8325 61.2741 30.6891 59.8687 30.6891H35.1314C33.726 30.6891 32.5826 31.8325 32.5826 33.2379V71.8393H13.6057C12.6688 71.8393 11.9065 71.077 11.9065 70.14V16.7394C11.9065 15.8024 12.6688 15.0402 13.6057 15.0402H81.3945C82.3315 15.0402 83.0938 15.8024 83.0938 16.7394V70.14Z" fill="black"/>
<path d="M32.5826 73.5385H51.5826V54.5385H32.5826V73.5385ZM62.4175 73.5385V54.5385H43.4175V73.5385H62.4175ZM62.4175 71.8393H43.4175V90.8393H62.4175V71.8393ZM32.5826 71.8393V90.8393H51.5826V71.8393H32.5826ZM81.3945 -5.65906H13.6057V32.3409H81.3945V-5.65906ZM13.6057 -5.65906C1.23841 -5.65906 -8.79272 4.37207 -8.79272 16.7394H29.2073C29.2073 25.3589 22.2252 32.3409 13.6057 32.3409V-5.65906ZM-8.79272 16.7394V70.14H29.2073V16.7394H-8.79272ZM-8.79272 70.14C-8.79272 82.5074 1.23843 92.5385 13.6057 92.5385V54.5385C22.2252 54.5385 29.2073 61.5205 29.2073 70.14H-8.79272ZM13.6057 92.5385H32.5826V54.5385H13.6057V92.5385ZM13.5826 73.5385V76.7583H51.5826V73.5385H13.5826ZM13.5826 76.7583C13.5826 88.6572 23.2326 98.3072 35.1314 98.3072V60.3072C44.2194 60.3072 51.5826 67.6703 51.5826 76.7583H13.5826ZM35.1314 98.3072H59.8687V60.3072H35.1314V98.3072ZM59.8687 98.3072C71.7675 98.3072 81.4175 88.6572 81.4175 76.7583H43.4175C43.4175 67.6703 50.7807 60.3072 59.8687 60.3072V98.3072ZM81.4175 76.7583V73.5385H43.4175V76.7583H81.4175ZM62.4175 92.5385H81.3945V54.5385H62.4175V92.5385ZM81.3945 92.5385C93.7618 92.5385 103.793 82.5074 103.793 70.14H65.793C65.793 61.5205 72.775 54.5385 81.3945 54.5385V92.5385ZM103.793 70.14V16.7394H65.793V70.14H103.793ZM103.793 16.7394C103.793 4.37207 93.7618 -5.65906 81.3945 -5.65906V32.3409C72.775 32.3409 65.793 25.3589 65.793 16.7394H103.793ZM41.7183 76.7583C41.7183 66.7334 49.8437 58.6079 59.8687 58.6079V96.6079C70.8305 96.6079 79.7183 87.7202 79.7183 76.7583H41.7183ZM59.8687 58.6079H35.1314V96.6079H59.8687V58.6079ZM35.1314 58.6079C45.1564 58.6079 53.2818 66.7334 53.2818 76.7583H15.2818C15.2818 87.7202 24.1695 96.6079 35.1314 96.6079V58.6079ZM53.2818 76.7583V33.2379H15.2818V76.7583H53.2818ZM53.2818 33.2379C53.2818 43.2629 45.1564 51.3883 35.1314 51.3883V13.3883C24.1695 13.3883 15.2818 22.2761 15.2818 33.2379H53.2818ZM35.1314 51.3883H59.8687V13.3883H35.1314V51.3883ZM59.8687 51.3883C49.8437 51.3883 41.7183 43.2629 41.7183 33.2379H79.7183C79.7183 22.2761 70.8305 13.3883 59.8687 13.3883V51.3883ZM41.7183 33.2379V76.7583H79.7183V33.2379H41.7183ZM64.0938 70.14C64.0938 60.5835 71.8381 52.8393 81.3945 52.8393V90.8393C92.8248 90.8393 102.094 81.5705 102.094 70.14H64.0938ZM81.3945 52.8393H62.4175V90.8393H81.3945V52.8393ZM81.4175 71.8393V33.2379H43.4175V71.8393H81.4175ZM81.4175 33.2379C81.4175 21.3391 71.7675 11.6891 59.8687 11.6891V49.6891C50.7807 49.6891 43.4175 42.3259 43.4175 33.2379H81.4175ZM59.8687 11.6891H35.1314V49.6891H59.8687V11.6891ZM35.1314 11.6891C23.2326 11.6891 13.5826 21.3391 13.5826 33.2379H51.5826C51.5826 42.3259 44.2194 49.6891 35.1314 49.6891V11.6891ZM13.5826 33.2379V71.8393H51.5826V33.2379H13.5826ZM32.5826 52.8393H13.6057V90.8393H32.5826V52.8393ZM13.6057 52.8393C23.1621 52.8393 30.9065 60.5835 30.9065 70.14H-7.09351C-7.09351 81.5705 2.17541 90.8393 13.6057 90.8393V52.8393ZM30.9065 70.14V16.7394H-7.09351V70.14H30.9065ZM30.9065 16.7394C30.9065 26.2958 23.1622 34.0402 13.6057 34.0402V-3.95984C2.17536 -3.95984 -7.09351 5.30902 -7.09351 16.7394H30.9065ZM13.6057 34.0402H81.3945V-3.95984H13.6057V34.0402ZM81.3945 34.0402C71.8381 34.0402 64.0938 26.2958 64.0938 16.7394H102.094C102.094 5.30902 92.8249 -3.95984 81.3945 -3.95984V34.0402ZM64.0938 16.7394V70.14H102.094V16.7394H64.0938Z" fill="black" mask="url(#path-20-inside-1)"/>
<path d="M47.5 53.8564C50.658 53.8564 53.2181 51.2963 53.2181 48.1383C53.2181 44.9803 50.658 42.4203 47.5 42.4203C44.342 42.4203 41.782 44.9803 41.782 48.1383C41.782 51.2963 44.342 53.8564 47.5 53.8564Z" fill="#02FFB3"/>
<path d="M50.3236 48.3316C50.3236 46.7751 49.056 45.5092 47.4995 45.5092C45.943 45.5092 44.6771 46.7751 44.6771 48.3316C44.6771 49.0996 44.9864 49.7963 45.4843 50.306C44.9864 50.8141 44.6771 51.5108 44.6771 52.2788V53.1115C45.1988 53.4071 45.7697 53.6246 46.3763 53.7453V52.2788C46.3763 51.6586 46.881 51.1557 47.4995 51.1557C48.1197 51.1557 48.6244 51.6586 48.6244 52.2788V53.7453C49.231 53.6246 49.802 53.4071 50.3236 53.1115V52.2788C50.3236 51.5108 50.0144 50.8141 49.5148 50.306C50.0144 49.7963 50.3236 49.0996 50.3236 48.3316ZM47.4995 49.4564C46.881 49.4564 46.3763 48.9518 46.3763 48.3316C46.3763 47.713 46.881 47.2084 47.4995 47.2084C48.1197 47.2084 48.6244 47.713 48.6244 48.3316C48.6244 48.9518 48.1197 49.4564 47.4995 49.4564Z" fill="white"/>
<path d="M52.5705 58.6123H42.4296C41.9604 58.6123 41.58 58.2318 41.58 57.7627C41.58 57.2935 41.9604 56.9131 42.4296 56.9131H52.5707C53.0398 56.9131 53.4203 57.2935 53.4203 57.7627C53.4203 58.2318 53.0398 58.6123 52.5705 58.6123Z" fill="#4369FD"/>
<path d="M52.5705 69.4437H42.4296C41.9604 69.4437 41.58 69.0633 41.58 68.5941C41.58 68.125 41.9604 67.7445 42.4296 67.7445H52.5707C53.0398 67.7445 53.4203 68.125 53.4203 68.5941C53.4203 69.0633 53.0398 69.4437 52.5705 69.4437Z" fill="white"/>
<path d="M52.5705 72.6888H42.4296C41.9604 72.6888 41.58 72.3083 41.58 71.8392C41.58 71.37 41.9604 70.9896 42.4296 70.9896H52.5707C53.0398 70.9896 53.4203 71.37 53.4203 71.8392C53.4203 72.3083 53.0398 72.6888 52.5705 72.6888Z" fill="white"/>
<path d="M45.9436 61.579H42.4296C41.9604 61.579 41.58 61.1985 41.58 60.7294C41.58 60.2602 41.9604 59.8798 42.4296 59.8798H45.9437C46.4129 59.8798 46.7933 60.2602 46.7933 60.7294C46.7933 61.1985 46.4129 61.579 45.9436 61.579Z" fill="#4369FD"/>
<path d="M57.4902 40.4397H55.5054C55.0362 40.4397 54.6558 40.0592 54.6558 39.5901C54.6558 39.1209 55.0362 38.7405 55.5054 38.7405H57.4902C57.9594 38.7405 58.3398 39.1209 58.3398 39.5901C58.3398 40.0592 57.9595 40.4397 57.4902 40.4397Z" fill="white"/>
<path d="M57.4902 43.0712H55.5054C55.0362 43.0712 54.6558 42.6908 54.6558 42.2216C54.6558 41.7525 55.0362 41.372 55.5054 41.372H57.4902C57.9594 41.372 58.3398 41.7525 58.3398 42.2216C58.3398 42.6908 57.9595 43.0712 57.4902 43.0712Z" fill="white"/>
<path d="M37.646 40.4402C38.1154 40.4402 38.4959 40.0597 38.4959 39.5902C38.4959 39.1208 38.1154 38.7403 37.646 38.7403C37.1766 38.7403 36.796 39.1208 36.796 39.5902C36.796 40.0597 37.1766 40.4402 37.646 40.4402Z" fill="white"/>
<path d="M27.6711 83.1032C27.202 83.1032 26.8215 82.7229 26.8215 82.2536C26.8215 81.6913 26.3643 81.2341 25.802 81.2341C25.3328 81.2341 24.9524 80.8538 24.9524 80.3845C24.9524 79.9151 25.3328 79.5349 25.802 79.5349C26.3643 79.5349 26.8215 79.0776 26.8215 78.5153C26.8215 78.046 27.202 77.6657 27.6711 77.6657C28.1403 77.6657 28.5208 78.046 28.5208 78.5153C28.5208 79.0776 28.978 79.5349 29.5403 79.5349C30.0094 79.5349 30.3899 79.9151 30.3899 80.3845C30.3899 80.8538 30.0094 81.2341 29.5403 81.2341C28.978 81.2341 28.5208 81.6913 28.5208 82.2536C28.5208 82.7229 28.1403 83.1032 27.6711 83.1032Z" fill="#01ECA5"/>
<path d="M19.3821 81.5739C18.9129 81.5739 18.5325 81.1936 18.5325 80.7243C18.5325 80.162 18.0752 79.7048 17.5129 79.7048C17.0438 79.7048 16.6633 79.3245 16.6633 78.8552C16.6633 78.3858 17.0438 78.0056 17.5129 78.0056C18.0752 78.0056 18.5325 77.5483 18.5325 76.986C18.5325 76.5167 18.9129 76.1364 19.3821 76.1364C19.8512 76.1364 20.2317 76.5167 20.2317 76.986C20.2317 77.5483 20.6889 78.0056 21.2512 78.0056C21.7204 78.0056 22.1008 78.3858 22.1008 78.8552C22.1008 79.3245 21.7204 79.7048 21.2512 79.7048C20.6889 79.7048 20.2317 80.162 20.2317 80.7243C20.2317 81.1936 19.8512 81.5739 19.3821 81.5739Z" fill="#FF5BA8"/>
<path d="M60.129 10.5733C59.6596 10.5733 59.2793 10.193 59.2793 9.72369C59.2793 9.16142 58.8219 8.70416 58.2596 8.70416C57.7903 8.70416 57.41 8.32388 57.41 7.85455C57.41 7.38523 57.7903 7.00494 58.2596 7.00494C58.8219 7.00494 59.2793 6.54768 59.2793 5.98541C59.2793 5.51609 59.6596 5.1358 60.129 5.1358C60.5983 5.1358 60.9786 5.51609 60.9786 5.98541C60.9786 6.54768 61.4358 7.00494 61.9979 7.00494C62.4672 7.00494 62.8475 7.38523 62.8475 7.85455C62.8475 8.32388 62.4672 8.70416 61.9979 8.70416C61.4358 8.70416 60.9786 9.16142 60.9786 9.72369C60.9786 10.193 60.5983 10.5733 60.129 10.5733Z" fill="#FF5BA8"/>
<path d="M68.6098 8.7536C67.2706 8.7536 66.1813 7.66424 66.1813 6.32525C66.1813 4.9861 67.2706 3.89673 68.6098 3.89673C69.9488 3.89673 71.0382 4.9861 71.0382 6.32525C71.0382 7.66424 69.9488 8.7536 68.6098 8.7536V8.7536ZM68.6098 5.59595C68.2078 5.59595 67.8805 5.92322 67.8805 6.32525C67.8805 6.72729 68.2078 7.05439 68.6098 7.05439C69.0118 7.05439 69.3389 6.72729 69.3389 6.32525C69.3389 5.92322 69.012 5.59595 68.6098 5.59595V5.59595Z" fill="#6583FE"/>
<path d="M66.3101 82.8131C64.9711 82.8131 63.8817 81.7237 63.8817 80.3845C63.8817 79.0455 64.9711 77.9562 66.3101 77.9562C67.6491 77.9562 68.7384 79.0455 68.7384 80.3845C68.7384 81.7237 67.6491 82.8131 66.3101 82.8131ZM66.3101 79.6554C65.908 79.6554 65.5809 79.9825 65.5809 80.3845C65.5809 80.7866 65.908 81.1138 66.3101 81.1138C66.7121 81.1138 67.0392 80.7866 67.0392 80.3845C67.0392 79.9825 66.7121 79.6554 66.3101 79.6554Z" fill="#6583FE"/>
</g>
<defs>
<linearGradient id="paint0_linear" x1="15.6519" y1="73.101" x2="71.12" y2="6.99668" gradientUnits="userSpaceOnUse">
<stop stop-color="#D2DEFF" stop-opacity="0"/>
<stop offset="0.6852" stop-color="#D2DEFF"/>
</linearGradient>
<clipPath id="clip0">
<rect width="87" height="87" fill="white" transform="translate(4)"/>
</clipPath>
</defs>
</svg>
