<svg width="95" height="87" viewBox="0 0 95 87" fill="none" xmlns="http://www.w3.org/2000/svg">
<path d="M3.92935 51.5434C7.34218 63.2076 17.1795 87.001 33.8026 84.8653C50.4751 82.723 43.9642 61.2241 59.2267 58.2774C65.9454 56.9802 70.4996 68.6085 77.2332 68.2467C85.9057 67.7807 90.3199 59.1961 92.7434 51.9792C97.882 36.6768 90.1867 10.7286 72.1758 6.23453C56.4586 2.31288 54.6202 21.5163 40.954 15.9385C33.2727 12.8034 34.0401 3.44114 24.685 1.55203C-3.6167 -4.16286 -0.611907 36.0231 3.92935 51.5434V51.5434Z" fill="url(#paint0_linear)"/>
<path d="M36.3279 61.6492L18.0476 79.9295C16.3746 81.6025 13.6622 81.6025 11.9892 79.9295C10.3161 78.2565 10.3161 75.544 11.9892 73.871L30.2694 55.5908L36.3279 61.6492Z" fill="#58BFFF"/>
<path d="M79.6297 39.8646V41.1151C79.6297 43.8777 77.3902 46.1172 74.6276 46.1172C71.865 46.1172 69.6255 43.8777 69.6255 41.1151V39.8646C69.6255 37.102 71.865 34.8625 74.6276 34.8625C77.3902 34.8625 79.6297 37.102 79.6297 39.8646Z" fill="#FFCDAC"/>
<path d="M78.0011 46.1172H71.255C66.575 46.1172 62.7812 49.9111 62.7812 54.591V57.7303H86.4748V54.591C86.4748 49.911 82.6809 46.1172 78.0011 46.1172Z" fill="#FFBC53"/>
<path d="M16.606 39.8646V41.1151C16.606 43.8777 18.8455 46.1172 21.6081 46.1172C24.3707 46.1172 26.6102 43.8777 26.6102 41.1151V39.8646C26.6102 37.102 24.3707 34.8625 21.6081 34.8625C18.8455 34.8625 16.606 37.102 16.606 39.8646Z" fill="#FFCDAC"/>
<path d="M18.2349 46.1172H24.981C29.661 46.1172 33.4547 49.9111 33.4547 54.591V57.7303H9.76123V54.591C9.76123 49.911 13.5551 46.1172 18.2349 46.1172Z" fill="#FFAF5D"/>
<path d="M48.1185 64.0752C60.0021 64.0752 69.6357 54.4417 69.6357 42.5581C69.6357 30.6745 60.0021 21.0409 48.1185 21.0409C36.2349 21.0409 26.6013 30.6745 26.6013 42.5581C26.6013 54.4417 36.2349 64.0752 48.1185 64.0752Z" fill="#A5DDFF"/>
<path d="M48.1184 57.8337C56.5549 57.8337 63.394 50.9946 63.394 42.5581C63.394 34.1216 56.5549 27.2825 48.1184 27.2825C39.6819 27.2825 32.8428 34.1216 32.8428 42.5581C32.8428 50.9946 39.6819 57.8337 48.1184 57.8337Z" fill="white" fill-opacity="0.65"/>
<path d="M52.9631 40.6008V41.812C52.9631 44.4878 50.7939 46.6569 48.1181 46.6569C45.4424 46.6569 43.2732 44.4878 43.2732 41.812V40.6008C43.2732 37.925 45.4424 35.7559 48.1181 35.7559C50.7939 35.7557 52.9631 37.9249 52.9631 40.6008Z" fill="#FFCDAC"/>
<path d="M48.1181 46.657C43.3886 46.657 39.348 49.595 37.7141 53.7442C40.4423 56.2826 44.0978 57.8376 48.1181 57.8376C52.1386 57.8376 55.794 56.2826 58.5221 53.7442C56.8882 49.595 52.8477 46.657 48.1181 46.657Z" fill="#FE6663"/>
<path d="M80.0717 44.7739C80.7771 43.728 81.1893 42.4688 81.1893 41.1151V39.8644C81.1893 36.2466 78.2458 33.3031 74.628 33.3031C72.8229 33.3031 71.1857 34.0361 69.9982 35.2198C66.9256 26.0817 58.2784 19.481 48.1181 19.481C37.9577 19.481 29.3105 26.0816 26.2379 35.2198C25.0504 34.0361 23.4134 33.3031 21.6081 33.3031C17.9903 33.3031 15.0468 36.2466 15.0468 39.8644V41.1151C15.0468 42.4688 15.459 43.728 16.1644 44.7739C11.6226 45.731 8.20215 49.7686 8.20215 54.5909V57.7302C8.20215 58.5912 8.90036 59.2894 9.76136 59.2894H17.8693C18.7303 59.2894 19.4285 58.5912 19.4285 57.7302C19.4285 56.8692 18.7303 56.171 17.8693 56.171H11.3206V54.5909C11.3206 50.7781 14.4225 47.6762 18.2352 47.6762H25.6148C26.2133 50.3084 27.2621 52.7713 28.6773 54.9782L10.8868 72.7687C8.60879 75.0469 8.60879 78.7539 10.887 81.0322C12.0261 82.1714 13.5222 82.7408 15.0186 82.7408C16.5149 82.7408 18.0113 82.1712 19.1505 81.0322L28.9584 71.2241C29.5673 70.6153 29.5673 69.628 28.9584 69.0189C28.3494 68.4102 27.3624 68.4102 26.7532 69.0189L16.9454 78.827C15.8828 79.8895 14.1543 79.8893 13.0918 78.8272C12.0296 77.7647 12.0296 76.036 13.0918 74.9736L30.5561 57.5094C34.7921 62.4774 41.093 65.6337 48.1181 65.6337C59.0837 65.6337 68.2865 57.9452 70.6213 47.6762H78.0009C81.8136 47.6762 84.9155 50.7781 84.9155 54.5909V56.171H70.2589C69.3979 56.171 68.6997 56.8692 68.6997 57.7302C68.6997 58.5912 69.3979 59.2894 70.2589 59.2894H86.4747C87.3357 59.2894 88.034 58.5912 88.034 57.7302V54.5909C88.034 49.7686 84.6135 45.731 80.0717 44.7739ZM71.1849 39.8646C71.1849 37.9661 72.7293 36.4217 74.6278 36.4217C76.5263 36.4217 78.0707 37.9661 78.0707 39.8646V41.1152C78.0707 43.0136 76.5263 44.558 74.6278 44.558C72.7293 44.558 71.1849 43.0136 71.1849 41.1152V39.8646ZM18.1652 39.8646C18.1652 37.9661 19.7096 36.4217 21.6081 36.4217C23.5066 36.4217 25.051 37.9661 25.051 39.8646V41.1152C25.051 43.0136 23.5066 44.558 21.6081 44.558C19.7096 44.558 18.1652 43.0136 18.1652 41.1152V39.8646ZM48.1181 62.5153C37.1133 62.5153 28.1601 53.5621 28.1601 42.5573C28.1601 31.5526 37.1133 22.5994 48.1181 22.5994C59.1228 22.5994 68.076 31.5526 68.076 42.5573C68.076 53.5621 59.1228 62.5153 48.1181 62.5153Z" fill="black"/>
<path d="M48.1181 25.7178C38.8327 25.7178 31.2786 33.2719 31.2786 42.5574C31.2786 47.3769 33.3143 51.7294 36.5702 54.8019C36.6259 54.8621 36.6856 54.9188 36.7511 54.9703C39.7488 57.7178 43.7409 59.3969 48.1181 59.3969C52.4953 59.3969 56.4873 57.7176 59.4851 54.9703C59.5506 54.919 59.6103 54.8621 59.6659 54.8019C62.9219 51.7294 64.9576 47.3769 64.9576 42.5574C64.9576 33.2721 57.4035 25.7178 48.1181 25.7178ZM39.6208 53.3231C41.2775 50.1885 44.506 48.2162 48.1181 48.2162C51.7302 48.2162 54.9587 50.1885 56.6153 53.3231C54.2768 55.1728 51.3243 56.2785 48.1181 56.2785C44.9119 56.2785 41.9593 55.1728 39.6208 53.3231ZM44.8324 41.8121V40.6007C44.8324 38.7889 46.3063 37.315 48.1181 37.315C49.9299 37.315 51.4038 38.7889 51.4038 40.6007V41.8121C51.4038 43.6239 49.9299 45.0978 48.1181 45.0978C46.3063 45.0978 44.8324 43.6239 44.8324 41.8121ZM58.8962 51.0393C57.4678 48.7602 55.377 47.0222 52.93 46.0311C53.9199 44.9034 54.5223 43.4272 54.5223 41.8122V40.6009C54.5223 37.0697 51.6492 34.1967 48.1181 34.1967C44.5869 34.1967 41.7139 37.0697 41.7139 40.6009V41.8122C41.7139 43.4272 42.3161 44.9034 43.3062 46.0311C40.8592 47.0223 38.7686 48.7602 37.34 51.0393C35.4976 48.7033 34.397 45.7566 34.397 42.5574C34.397 34.9916 40.5523 28.8363 48.1181 28.8363C55.6839 28.8363 61.8392 34.9916 61.8392 42.5574C61.8392 45.7566 60.7385 48.7033 58.8962 51.0393Z" fill="black"/>
<path d="M32.027 64.3917C31.6169 64.3917 31.2146 64.5585 30.9246 64.8485C30.6348 65.1385 30.4678 65.5408 30.4678 65.9509C30.4678 66.361 30.6346 66.7632 30.9246 67.0532C31.2146 67.3431 31.6169 67.5101 32.027 67.5101C32.4371 67.5101 32.8393 67.3433 33.1294 67.0532C33.4192 66.7632 33.5862 66.361 33.5862 65.9509C33.5862 65.5408 33.4194 65.1385 33.1294 64.8485C32.8393 64.5585 32.4371 64.3917 32.027 64.3917Z" fill="black"/>
<path d="M48.1495 11.3354C49.0105 11.3354 49.7088 10.6372 49.7088 9.77615V4.47108C49.7088 3.61008 49.0105 2.91187 48.1495 2.91187C47.2885 2.91187 46.5903 3.61008 46.5903 4.47108V9.77615C46.5903 10.6373 47.2885 11.3354 48.1495 11.3354Z" fill="black"/>
<path d="M48.1493 16.477C48.5609 16.477 48.9617 16.3101 49.2515 16.0199C49.5415 15.7301 49.7085 15.3278 49.7085 14.9177C49.7085 14.5077 49.5417 14.1054 49.2515 13.8154C48.9617 13.5254 48.5608 13.3585 48.1493 13.3585C47.7391 13.3585 47.337 13.5252 47.0469 13.8154C46.7569 14.1055 46.5901 14.5077 46.5901 14.9177C46.5901 15.3278 46.7568 15.7301 47.0469 16.0199C47.337 16.31 47.7391 16.477 48.1493 16.477Z" fill="black"/>
<path d="M57.5249 14.4303C57.9241 14.4303 58.3229 14.278 58.6274 13.9736L61.3679 11.2331C61.9768 10.6243 61.9768 9.63698 61.3679 9.02795C60.7589 8.41923 59.7719 8.41923 59.1627 9.02795L56.4222 11.7684C55.8134 12.3773 55.8134 13.3646 56.4222 13.9736C56.7269 14.278 57.1257 14.4303 57.5249 14.4303Z" fill="black"/>
<path d="M37.6348 13.9926C37.9393 14.2969 38.3383 14.4493 38.7373 14.4493C39.1363 14.4493 39.5353 14.2969 39.8398 13.9926C40.4487 13.3837 40.4487 12.3964 39.8398 11.7874L37.073 9.02056C36.464 8.41185 35.477 8.41185 34.8678 9.02056C34.2589 9.62944 34.2589 10.6167 34.8678 11.2258L37.6348 13.9926Z" fill="black"/>
<path d="M29.8477 86.5424C29.3354 86.5424 28.9199 86.1298 28.9199 85.6206C28.9199 85.0106 28.4206 84.5145 27.8066 84.5145C27.2943 84.5145 26.8789 84.1019 26.8789 83.5927C26.8789 83.0835 27.2943 82.6709 27.8066 82.6709C28.4206 82.6709 28.9199 82.1749 28.9199 81.5648C28.9199 81.0556 29.3354 80.6431 29.8477 80.6431C30.36 80.6431 30.7754 81.0556 30.7754 81.5648C30.7754 82.1749 31.2747 82.6709 31.8887 82.6709C32.401 82.6709 32.8164 83.0835 32.8164 83.5927C32.8164 84.1019 32.401 84.5145 31.8887 84.5145C31.2747 84.5145 30.7754 85.0106 30.7754 85.6206C30.7754 86.1298 30.36 86.5424 29.8477 86.5424Z" fill="#01ECA5"/>
<path d="M20.7964 84.8832C20.2841 84.8832 19.8687 84.4706 19.8687 83.9614C19.8687 83.3514 19.3693 82.8553 18.7554 82.8553C18.2431 82.8553 17.8276 82.4427 17.8276 81.9335C17.8276 81.4244 18.2431 81.0118 18.7554 81.0118C19.3693 81.0118 19.8687 80.5157 19.8687 79.9057C19.8687 79.3965 20.2841 78.9839 20.7964 78.9839C21.3087 78.9839 21.7241 79.3965 21.7241 79.9057C21.7241 80.5157 22.2234 81.0118 22.8374 81.0118C23.3497 81.0118 23.7651 81.4244 23.7651 81.9335C23.7651 82.4427 23.3497 82.8553 22.8374 82.8553C22.2234 82.8553 21.7241 83.3514 21.7241 83.9614C21.7241 84.4706 21.3087 84.8832 20.7964 84.8832Z" fill="#FF5BA8"/>
<path d="M74.5508 5.87866C73.0885 5.87866 71.8989 4.69679 71.8989 3.24411C71.8989 1.79125 73.0885 0.609375 74.5508 0.609375C76.0129 0.609375 77.2024 1.79125 77.2024 3.24411C77.2024 4.69679 76.0129 5.87866 74.5508 5.87866ZM74.5508 2.45288C74.1118 2.45288 73.7544 2.80794 73.7544 3.24411C73.7544 3.68028 74.1118 4.03516 74.5508 4.03516C74.9898 4.03516 75.347 3.68028 75.347 3.24411C75.347 2.80794 74.99 2.45288 74.5508 2.45288Z" fill="#6583FE"/>
<path d="M72.0398 86.2274C70.5777 86.2274 69.3882 85.0455 69.3882 83.5926C69.3882 82.1399 70.5777 80.958 72.0398 80.958C73.502 80.958 74.6915 82.1399 74.6915 83.5926C74.6915 85.0455 73.502 86.2274 72.0398 86.2274ZM72.0398 82.8016C71.6008 82.8016 71.2437 83.1564 71.2437 83.5926C71.2437 84.0288 71.6008 84.3839 72.0398 84.3839C72.4788 84.3839 72.836 84.0288 72.836 83.5926C72.836 83.1564 72.4788 82.8016 72.0398 82.8016Z" fill="#6583FE"/>
<defs>
<linearGradient id="paint0_linear" x1="13.4966" y1="74.8116" x2="72.9861" y2="3.91478" gradientUnits="userSpaceOnUse">
<stop stop-color="#D2DEFF" stop-opacity="0"/>
<stop offset="0.6852" stop-color="#D2DEFF"/>
</linearGradient>
</defs>
</svg>
