<svg width="95" height="87" viewBox="0 0 95 87" fill="none" xmlns="http://www.w3.org/2000/svg">
<path d="M2.98273 51.8593C6.45747 63.7351 16.4733 87.96 33.3979 85.7856C50.3728 83.6045 43.7438 61.7156 59.2832 58.7155C66.1237 57.3947 70.7605 69.2339 77.6163 68.8656C86.4461 68.3912 90.9404 59.6508 93.4078 52.303C98.6396 36.723 90.8047 10.3041 72.4672 5.72853C56.4649 1.73575 54.5931 21.2875 40.6789 15.6085C32.8583 12.4166 33.6397 2.88447 24.1148 0.96109C-4.7002 -4.85747 -1.6409 36.0574 2.98273 51.8593V51.8593Z" fill="url(#paint0_linear)"/>
<path opacity="0.1" d="M78.4197 19.9385V64.6585C78.4197 65.9612 77.3624 67.0184 76.0598 67.0184H17.8489C16.5462 67.0184 15.489 65.9612 15.489 64.6585V19.9385C15.489 18.6358 16.5462 17.5786 17.8489 17.5786H76.0598C77.3624 17.5786 78.4197 18.6358 78.4197 19.9385Z" fill="#2626BC"/>
<path d="M78.4197 23.2423V67.9624C78.4197 69.265 77.3624 70.3223 76.0598 70.3223H17.8489C16.5462 70.3223 15.489 69.265 15.489 67.9624V23.2423C15.489 21.9396 16.5462 20.8824 17.8489 20.8824H76.0598C77.3624 20.8824 78.4197 21.9396 78.4197 23.2423Z" fill="white"/>
<path d="M72.3957 70.3223H21.5122V66.0549C21.5122 65.7942 21.7235 65.5829 21.9842 65.5829H71.9236C72.1843 65.5829 72.3956 65.7942 72.3956 66.0549V70.3223H72.3957Z" fill="#D2DEFF"/>
<path d="M21.5124 28.4609H72.3957V31.7843C72.3957 32.045 72.1844 32.2563 71.9237 32.2563H21.9842C21.7235 32.2563 21.5122 32.045 21.5122 31.7843L21.5124 28.4609Z" fill="#D2DEFF"/>
<path d="M78.4197 27.369V22.1503C78.4197 20.847 77.363 19.7904 76.0598 19.7904H46.9543H17.8489C16.5456 19.7904 15.489 20.847 15.489 22.1503V27.369H78.4197Z" fill="#8BC6F8"/>
<path d="M21.4805 23.5937C21.0459 23.5937 20.6938 23.2185 20.6938 22.7559V22.7316C20.6938 22.269 21.0459 21.8938 21.4805 21.8938C21.915 21.8938 22.2671 22.269 22.2671 22.7316V22.7559C22.2671 23.2185 21.915 23.5937 21.4805 23.5937Z" fill="#2626BC"/>
<path d="M24.5205 23.5937C24.086 23.5937 23.7339 23.2185 23.7339 22.7559V22.7316C23.7339 22.269 24.086 21.8938 24.5205 21.8938C24.9551 21.8938 25.3072 22.269 25.3072 22.7316V22.7559C25.3072 23.2185 24.9551 23.5937 24.5205 23.5937Z" fill="#2626BC"/>
<path d="M27.5606 23.5937C27.126 23.5937 26.7739 23.2185 26.7739 22.7559V22.7316C26.7739 22.269 27.126 21.8938 27.5606 21.8938C27.9951 21.8938 28.3472 22.269 28.3472 22.7316V22.7559C28.3472 23.2185 27.9951 23.5937 27.5606 23.5937Z" fill="#2626BC"/>
<path d="M76.0603 17.8703H17.8494C16.1144 17.8703 14.7029 19.3736 14.7029 21.2214V26.7884C14.7029 27.251 15.055 27.6262 15.4895 27.6262C15.5177 27.6262 15.5444 27.6205 15.5718 27.6173H78.4202C78.8547 27.6173 79.2068 27.2421 79.2068 26.7795V21.2214C79.2068 19.3736 77.7953 17.8703 76.0603 17.8703ZM17.8494 19.5459H76.0603C76.9278 19.5459 77.6335 20.2975 77.6335 21.2214V25.9417H16.2761V21.2214C16.276 20.2974 16.9818 19.5459 17.8494 19.5459Z" fill="black" stroke="black"/>
<path d="M78.4197 30.5563C77.9851 30.5563 77.633 30.9314 77.633 31.394V68.849C77.633 69.7729 76.9273 70.5246 76.0598 70.5246H17.8489C16.9814 70.5246 16.2757 69.7729 16.2757 68.849V31.3853C16.2757 30.9227 15.9236 30.5475 15.489 30.5475C15.0545 30.5475 14.7024 30.9227 14.7024 31.3853V68.8492C14.7024 70.697 16.1139 72.2003 17.8489 72.2003H76.0598C77.7948 72.2003 79.2063 70.697 79.2063 68.8492V31.394C79.2063 30.9314 78.8542 30.5563 78.4197 30.5563V30.5563Z" fill="black" stroke="black"/>
<path d="M40.339 48.7245H21.9842C21.7235 48.7245 21.5122 48.5132 21.5122 48.2525V35.4856C21.5122 35.2249 21.7235 35.0136 21.9842 35.0136H40.339C40.5997 35.0136 40.811 35.2249 40.811 35.4856V48.2525C40.811 48.5132 40.5997 48.7245 40.339 48.7245Z" fill="#FFDA8F"/>
<path d="M28.8809 39.7667V43.9711C28.8809 44.335 29.2753 44.562 29.5899 44.3792L33.208 42.277C33.5211 42.095 33.5211 41.6428 33.208 41.4608L29.5899 39.3586C29.2753 39.1758 28.8809 39.4028 28.8809 39.7667V39.7667Z" fill="white"/>
<path d="M44.193 59.6471H22.3003C21.8652 59.6471 21.5125 59.2943 21.5125 58.8592C21.5125 58.424 21.8652 58.0713 22.3003 58.0713H44.193C44.6281 58.0713 44.9809 58.424 44.9809 58.8592C44.9809 59.2943 44.6281 59.6471 44.193 59.6471Z" fill="#B7C5FF"/>
<path d="M44.1932 53.8285H33.4446C33.0095 53.8285 32.6567 53.4758 32.6567 53.0406C32.6567 52.6055 33.0095 52.2527 33.4446 52.2527H44.1932C44.6283 52.2527 44.9811 52.6055 44.9811 53.0406C44.9811 53.4758 44.6283 53.8285 44.1932 53.8285Z" fill="#6583FE"/>
<path d="M44.193 62.7726H22.3003C21.8652 62.7726 21.5125 62.4198 21.5125 61.9847C21.5125 61.5495 21.8652 61.1968 22.3003 61.1968H44.193C44.6281 61.1968 44.9809 61.5495 44.9809 61.9847C44.9809 62.4197 44.6281 62.7726 44.193 62.7726Z" fill="#B7C5FF"/>
<path d="M71.6078 42.3748H45.3748C44.9396 42.3748 44.5869 42.0221 44.5869 41.5869C44.5869 41.1517 44.9396 40.799 45.3748 40.799H71.6078C72.0429 40.799 72.3956 41.1517 72.3956 41.5869C72.3958 42.0221 72.0431 42.3748 71.6078 42.3748Z" fill="#B7C5FF"/>
<path d="M62.1682 36.5894H45.3748C44.9396 36.5894 44.5869 36.2367 44.5869 35.8015C44.5869 35.3663 44.9396 35.0136 45.3748 35.0136H62.1682C62.6033 35.0136 62.9561 35.3663 62.9561 35.8015C62.9562 36.2365 62.6035 36.5894 62.1682 36.5894Z" fill="#FFA8CF"/>
<path d="M71.6078 45.5003H45.3748C44.9396 45.5003 44.5869 45.1476 44.5869 44.7124C44.5869 44.2772 44.9396 43.9245 45.3748 43.9245H71.6078C72.0429 43.9245 72.3956 44.2772 72.3956 44.7124C72.3958 45.1476 72.0431 45.5003 71.6078 45.5003Z" fill="#B7C5FF"/>
<path d="M71.6078 48.6914H45.3748C44.9396 48.6914 44.5869 48.3387 44.5869 47.9036C44.5869 47.4684 44.9396 47.1157 45.3748 47.1157H71.6078C72.0429 47.1157 72.3956 47.4684 72.3956 47.9036C72.3958 48.3386 72.0431 48.6914 71.6078 48.6914Z" fill="#B7C5FF"/>
<path d="M71.9243 62.7725H48.5272C48.2665 62.7725 48.0552 62.5613 48.0552 62.3006V52.7247C48.0552 52.464 48.2665 52.2527 48.5272 52.2527H71.9243C72.185 52.2527 72.3963 52.464 72.3963 52.7247V62.3006C72.3963 62.5613 72.1848 62.7725 71.9243 62.7725V62.7725Z" fill="#FF8389"/>
<path d="M62.8858 58.392C63.3715 58.392 63.7653 57.9983 63.7653 57.5126C63.7653 57.0269 63.3715 56.6331 62.8858 56.6331C62.4001 56.6331 62.0063 57.0269 62.0063 57.5126C62.0063 57.9983 62.4001 58.392 62.8858 58.392Z" fill="#D2DEFF"/>
<path d="M60.2254 58.392C60.7111 58.392 61.1049 57.9983 61.1049 57.5126C61.1049 57.0269 60.7111 56.6331 60.2254 56.6331C59.7397 56.6331 59.3459 57.0269 59.3459 57.5126C59.3459 57.9983 59.7397 58.392 60.2254 58.392Z" fill="#D2DEFF"/>
<path d="M57.5648 58.392C58.0505 58.392 58.4442 57.9983 58.4442 57.5126C58.4442 57.0269 58.0505 56.6331 57.5648 56.6331C57.079 56.6331 56.6853 57.0269 56.6853 57.5126C56.6853 57.9983 57.079 58.392 57.5648 58.392Z" fill="#D2DEFF"/>
<path d="M23.4634 78.4273C23.2548 78.4273 23.0546 78.3444 22.9072 78.197L21.1738 76.4636C20.8665 76.1563 20.8665 75.6582 21.1738 75.3511L22.9072 73.6177C23.0548 73.4701 23.2548 73.3874 23.4634 73.3874C23.672 73.3874 23.8721 73.4703 24.0195 73.6177L25.7531 75.3511C25.9007 75.4987 25.9836 75.6987 25.9836 75.9074C25.9836 76.1162 25.9008 76.3162 25.7531 76.4638L24.0195 78.1972C23.8721 78.3444 23.6722 78.4273 23.4634 78.4273ZM22.8426 75.9073L23.4634 76.5283L24.0843 75.9073L23.4634 75.2863L22.8426 75.9073Z" fill="#6583FE"/>
<path d="M52.1431 13.4263C51.9345 13.4263 51.7344 13.3434 51.587 13.196L49.8535 11.4626C49.706 11.315 49.623 11.1151 49.623 10.9063C49.623 10.6975 49.706 10.4976 49.8535 10.35L51.5871 8.61656C51.8941 8.30946 52.3925 8.30946 52.6994 8.61656L54.4328 10.35C54.7401 10.6572 54.7401 11.1553 54.4328 11.4624L52.6994 13.1959C52.5518 13.3434 52.3519 13.4263 52.1431 13.4263V13.4263ZM51.5221 10.9063L52.1431 11.5273L52.7639 10.9063L52.1431 10.2853L51.5221 10.9063Z" fill="#6583FE"/>
<path d="M72.3959 79.5148C72.1947 79.5148 71.9933 79.438 71.8398 79.2845L70.1062 77.551C69.9586 77.4035 69.8757 77.2035 69.8757 76.9947C69.8757 76.786 69.9585 76.586 70.1062 76.4384L71.8398 74.705C71.9874 74.5574 72.1873 74.4747 72.3959 74.4747C72.6046 74.4747 72.8047 74.5576 72.9521 74.705L74.6855 76.4384C74.9928 76.7457 74.9928 77.2438 74.6855 77.5509L72.9521 79.2843C72.7985 79.4378 72.5972 79.5148 72.3959 79.5148V79.5148ZM71.775 76.9947L72.3959 77.6157L73.0168 76.9947L72.3959 76.3738L71.775 76.9947Z" fill="#FF7EB8"/>
<path d="M60.2255 15.1597C59.791 15.1597 59.4389 14.8075 59.4389 14.3731C59.4389 13.8511 59.0141 13.4263 58.492 13.4263C58.0574 13.4263 57.7053 13.0741 57.7053 12.6397C57.7053 12.2053 58.0574 11.8531 58.492 11.8531C59.014 11.8531 59.4389 11.4283 59.4389 10.9063C59.4389 10.4719 59.791 10.1196 60.2255 10.1196C60.6601 10.1196 61.0122 10.4719 61.0122 10.9063C61.0122 11.4283 61.4368 11.8531 61.959 11.8531C62.3935 11.8531 62.7456 12.2053 62.7456 12.6397C62.7456 13.0741 62.3935 13.4263 61.959 13.4263C61.437 13.4263 61.0122 13.8511 61.0122 14.3731C61.0122 14.8075 60.6601 15.1597 60.2255 15.1597Z" fill="#97FFD2"/>
<path d="M29.8477 86.5424C29.3354 86.5424 28.9199 86.1298 28.9199 85.6206C28.9199 85.0106 28.4206 84.5145 27.8066 84.5145C27.2943 84.5145 26.8789 84.1019 26.8789 83.5927C26.8789 83.0835 27.2943 82.6709 27.8066 82.6709C28.4206 82.6709 28.9199 82.1749 28.9199 81.5648C28.9199 81.0556 29.3354 80.6431 29.8477 80.6431C30.36 80.6431 30.7754 81.0556 30.7754 81.5648C30.7754 82.1749 31.2747 82.6709 31.8887 82.6709C32.401 82.6709 32.8164 83.0835 32.8164 83.5927C32.8164 84.1019 32.401 84.5145 31.8887 84.5145C31.2747 84.5145 30.7754 85.0106 30.7754 85.6206C30.7754 86.1298 30.36 86.5424 29.8477 86.5424Z" fill="#01ECA5"/>
<path d="M20.7964 84.8832C20.2841 84.8832 19.8687 84.4706 19.8687 83.9614C19.8687 83.3514 19.3693 82.8553 18.7554 82.8553C18.2431 82.8553 17.8276 82.4427 17.8276 81.9335C17.8276 81.4244 18.2431 81.0118 18.7554 81.0118C19.3693 81.0118 19.8687 80.5157 19.8687 79.9057C19.8687 79.3965 20.2841 78.9839 20.7964 78.9839C21.3087 78.9839 21.7241 79.3965 21.7241 79.9057C21.7241 80.5157 22.2234 81.0118 22.8374 81.0118C23.3497 81.0118 23.7651 81.4244 23.7651 81.9335C23.7651 82.4427 23.3497 82.8553 22.8374 82.8553C22.2234 82.8553 21.7241 83.3514 21.7241 83.9614C21.7241 84.4706 21.3087 84.8832 20.7964 84.8832Z" fill="#FF5BA8"/>
<path d="M74.5508 5.87866C73.0885 5.87866 71.8989 4.69679 71.8989 3.24411C71.8989 1.79125 73.0885 0.609375 74.5508 0.609375C76.0129 0.609375 77.2024 1.79125 77.2024 3.24411C77.2024 4.69679 76.0129 5.87866 74.5508 5.87866ZM74.5508 2.45288C74.1118 2.45288 73.7544 2.80794 73.7544 3.24411C73.7544 3.68028 74.1118 4.03516 74.5508 4.03516C74.9898 4.03516 75.347 3.68028 75.347 3.24411C75.347 2.80794 74.99 2.45288 74.5508 2.45288Z" fill="#6583FE"/>
<path d="M72.0398 86.2274C70.5777 86.2274 69.3882 85.0455 69.3882 83.5926C69.3882 82.1399 70.5777 80.958 72.0398 80.958C73.502 80.958 74.6915 82.1399 74.6915 83.5926C74.6915 85.0455 73.502 86.2274 72.0398 86.2274ZM72.0398 82.8016C71.6008 82.8016 71.2437 83.1564 71.2437 83.5926C71.2437 84.0288 71.6008 84.3839 72.0398 84.3839C72.4788 84.3839 72.836 84.0288 72.836 83.5926C72.836 83.1564 72.4788 82.8016 72.0398 82.8016Z" fill="#6583FE"/>
<defs>
<linearGradient id="paint0_linear" x1="12.7236" y1="75.5496" x2="73.2921" y2="3.3667" gradientUnits="userSpaceOnUse">
<stop stop-color="#D2DEFF" stop-opacity="0"/>
<stop offset="0.6852" stop-color="#D2DEFF"/>
</linearGradient>
</defs>
</svg>
